<svg xmlns="http://www.w3.org/2000/svg" width="1460" height="617" fill="none" viewBox="0 0 1460 617">
  <rect width="1320" height="616" x="140" y=".07" fill="red" fill-opacity=".05" rx="16"/>
  <path fill="url(#a)" d="M850 223.82H750c-8.616 0-15.625-7.009-15.625-15.625v-66.25a15.55 15.55 0 0 1 5.863-12.2l50-40c5.746-4.6 13.775-4.6 19.521 0l50 40a15.548 15.548 0 0 1 5.863 12.2v66.25c0 8.616-7.006 15.625-15.622 15.625Z"/>
  <path fill="url(#b)" d="M846.875 198.82h-93.75a3.126 3.126 0 0 1-3.125-3.125v-87.5c0-5.168 4.206-9.375 9.375-9.375h81.25c5.169 0 9.375 4.207 9.375 9.375v87.5c0 1.725-1.4 3.125-3.125 3.125Z"/>
  <path fill="url(#c)" d="M812.875 154.63a3.128 3.128 0 0 0 1.066-4.291 3.129 3.129 0 0 0-4.291-1.065 18.69 18.69 0 0 1-9.653 2.671c-10.341 0-18.75-8.409-18.75-18.75 0-10.34 8.409-18.75 18.75-18.75s18.75 8.41 18.75 18.838c-.016 3.341-3.028 6.166-6.581 6.166a2.942 2.942 0 0 1-2.147-.922 2.923 2.923 0 0 1-.806-2.191l.475-9.062a6.286 6.286 0 0 0-1.71-4.629 6.274 6.274 0 0 0-4.531-1.946h-1.394c-7.666 0-14.231 6.228-14.631 13.909-.153 2.941.862 5.719 2.862 7.825 1.997 2.106 4.719 3.266 7.663 3.266 2.844 0 5.475-1.125 7.497-2.929.015.019.028.041.044.06a9.257 9.257 0 0 0 6.678 2.872c7.043 0 12.803-5.557 12.834-12.5 0-13.785-11.216-25-25-25s-25 11.215-25 25c0 13.784 11.216 25 25 25 4.547 0 9-1.235 12.875-3.566v-.006Zm-9.828-20.035v.013c-.141 2.622-2.475 4.834-5.1 4.834-1.213 0-2.325-.468-3.128-1.315-.807-.85-1.216-1.985-1.153-3.222.225-4.316 4.068-7.96 8.39-7.96h1.394l-.403 7.65Z"/>
  <path fill="url(#d)" d="M809.766 179.795c-5.663 4.535-13.875 4.535-19.532 0l-54.684-43.753a15.629 15.629 0 0 0-1.175 5.903v66.25c0 8.616 7.009 15.625 15.625 15.625h100c8.616 0 15.625-7.009 15.625-15.625v-66.25c0-2.062-.422-4.053-1.175-5.903l-54.684 43.753Z"/>
  <path fill="url(#e)" d="M809.766 171.383c-5.663-4.535-13.875-4.535-19.532 0l-54.318 43.459c2.506 5.288 7.856 8.978 14.084 8.978h100c6.228 0 11.578-3.69 14.084-8.978l-54.318-43.459Z"/>
  <path fill="#070211" d="M558.651 317.598c-1.76 0-3.392-.144-4.896-.432a51.808 51.808 0 0 1-4.656-1.152c-1.056-.32-1.824-.496-2.304-.528l.432-8.976h4.464l1.2 6.144c.352.416.992.784 1.92 1.104.96.32 2.096.48 3.408.48 1.952 0 3.408-.432 4.368-1.296.992-.864 1.488-2.048 1.488-3.552 0-1.056-.32-1.968-.96-2.736-.608-.8-1.472-1.52-2.592-2.16-1.088-.672-2.592-1.44-4.512-2.304-2.528-1.152-4.672-2.608-6.432-4.368-1.728-1.792-2.592-4.144-2.592-7.056 0-1.792.464-3.424 1.392-4.896.928-1.472 2.336-2.656 4.224-3.552 1.888-.896 4.24-1.344 7.056-1.344 1.696 0 3.168.112 4.416.336 1.28.224 2.64.528 4.08.912.768.256 1.36.4 1.776.432l-.288 8.544h-4.368l-1.104-5.904c-.224-.288-.736-.544-1.536-.768-.768-.256-1.632-.384-2.592-.384-1.76 0-3.088.416-3.984 1.248-.864.832-1.296 1.904-1.296 3.216 0 1.152.368 2.16 1.104 3.024a10.43 10.43 0 0 0 2.64 2.208c1.056.576 2.656 1.392 4.8 2.448 1.696.832 3.168 1.68 4.416 2.544 1.28.832 2.368 1.92 3.264 3.264.896 1.344 1.344 2.912 1.344 4.704 0 1.76-.432 3.456-1.296 5.088-.832 1.632-2.272 2.992-4.32 4.08-2.048 1.088-4.736 1.632-8.064 1.632Zm38.466-.048c-1.152 0-1.984-.24-2.496-.72-.512-.512-.768-1.248-.768-2.208v-1.056c-.768 1.056-1.92 2-3.456 2.832-1.536.8-3.088 1.2-4.656 1.2-3.136 0-5.376-.768-6.72-2.304-1.312-1.568-1.968-4.176-1.968-7.824v-13.344l-2.256-.624v-3.072l9.024-.624h.048l1.056.672v17.184c0 2.08.256 3.536.768 4.368.512.8 1.424 1.2 2.736 1.2 1.792 0 3.296-.608 4.512-1.824v-17.28l-2.976-.72v-2.976l9.504-.624h.144l1.152.672v23.28h2.544v3.072c-1.088.224-2.096.4-3.024.528-.896.128-1.952.192-3.168.192Zm7.275-38.688 9.456-1.152h.096l1.536.96v14.016c.832-.864 1.856-1.568 3.072-2.112a8.969 8.969 0 0 1 3.888-.864c3.072 0 5.552 1.088 7.44 3.264 1.92 2.144 2.88 5.44 2.88 9.888 0 2.784-.592 5.296-1.776 7.536-1.152 2.24-2.816 4-4.992 5.28-2.176 1.28-4.72 1.92-7.632 1.92-2.752 0-5.056-.208-6.912-.624-1.856-.448-3.072-.848-3.648-1.2V282.27l-3.408-.624v-2.784Zm15.072 15.552c-.8 0-1.552.176-2.256.528-.704.352-1.28.768-1.728 1.248v17.376c.128.32.48.576 1.056.768.608.192 1.296.288 2.064.288 1.792 0 3.216-.944 4.272-2.832s1.584-4.672 1.584-8.352c0-3.104-.448-5.376-1.344-6.816-.896-1.472-2.112-2.208-3.648-2.208Zm22.896 18.672c.224.352.736.672 1.536.96a7.589 7.589 0 0 0 2.496.432c1.312 0 2.304-.272 2.976-.816.704-.576 1.056-1.312 1.056-2.208 0-.96-.448-1.744-1.344-2.352-.896-.64-2.368-1.408-4.416-2.304l-1.824-.816c-2.08-.928-3.648-2.048-4.704-3.36-1.024-1.344-1.536-3.04-1.536-5.088 0-1.472.432-2.784 1.296-3.936.864-1.184 2.112-2.112 3.744-2.784 1.632-.672 3.552-1.008 5.76-1.008 1.536 0 2.864.096 3.984.288a46.33 46.33 0 0 1 3.408.72c.768.224 1.344.352 1.728.384v6.528h-4.272L651 294.03c-.16-.288-.544-.544-1.152-.768-.608-.256-1.296-.384-2.064-.384-1.216 0-2.176.272-2.88.816-.704.512-1.056 1.216-1.056 2.112 0 1.024.4 1.84 1.2 2.448.8.576 2.08 1.264 3.84 2.064l1.008.432c2.592 1.088 4.624 2.272 6.096 3.552 1.472 1.248 2.208 2.976 2.208 5.184 0 2.368-.944 4.32-2.832 5.856-1.888 1.504-4.672 2.256-8.352 2.256-1.696 0-3.2-.144-4.512-.432a52.332 52.332 0 0 1-4.32-1.056l-1.584-.432v-6.384h4.56l1.2 3.792Zm18.831-9.168c0-2.848.576-5.344 1.728-7.488 1.152-2.144 2.768-3.792 4.848-4.944 2.08-1.184 4.48-1.776 7.2-1.776 1.344 0 2.496.096 3.456.288.992.16 2 .4 3.024.72.928.256 1.504.4 1.728.432l-.336 8.688h-4.848l-1.248-5.52c-.096-.416-.368-.704-.816-.864-.416-.192-.928-.288-1.536-.288-1.504 0-2.688.736-3.552 2.208-.832 1.472-1.248 3.92-1.248 7.344 0 3.264.528 5.776 1.584 7.536 1.088 1.728 2.544 2.592 4.368 2.592 2.368 0 4.544-.608 6.528-1.824l1.296 2.832c-.768.864-2.032 1.712-3.792 2.544-1.76.8-3.712 1.2-5.856 1.2-4.192 0-7.328-1.232-9.408-3.696-2.08-2.496-3.12-5.824-3.12-9.984Zm25.701 9.984 2.928-.432v-18.048l-2.832-.864v-3.744l7.968-1.056h.144l1.344 1.008v1.152l-.144 3.984h.144c.224-.736.736-1.584 1.536-2.544.8-.992 1.808-1.84 3.024-2.544a7.802 7.802 0 0 1 4.032-1.104c.832 0 1.472.112 1.92.336v8.352a6.569 6.569 0 0 0-1.68-.912c-.576-.224-1.328-.336-2.256-.336-1.152 0-2.192.16-3.12.48-.928.288-1.664.624-2.208 1.008v14.832l5.28.48v3.12h-16.08v-3.168Zm28.871-27.648c-1.248 0-2.256-.368-3.024-1.104-.768-.736-1.152-1.68-1.152-2.832 0-1.344.416-2.448 1.248-3.312.864-.864 2.016-1.296 3.456-1.296s2.544.368 3.312 1.104c.768.736 1.152 1.68 1.152 2.832 0 1.376-.432 2.496-1.296 3.36-.864.832-2.08 1.248-3.648 1.248h-.048Zm-2.928 9.168-3.216-.912v-3.6l9.6-1.152h.096l1.488 1.008v22.704l2.88.432v3.168h-13.824v-3.168l2.976-.432v-18.048Zm12.213-16.56 9.456-1.152h.096l1.536.96v14.016c.832-.864 1.856-1.568 3.072-2.112a8.969 8.969 0 0 1 3.888-.864c3.072 0 5.552 1.088 7.44 3.264 1.92 2.144 2.88 5.44 2.88 9.888 0 2.784-.592 5.296-1.776 7.536-1.152 2.24-2.816 4-4.992 5.28-2.176 1.28-4.72 1.92-7.632 1.92-2.752 0-5.056-.208-6.912-.624-1.856-.448-3.072-.848-3.648-1.2V282.27l-3.408-.624v-2.784Zm15.072 15.552c-.8 0-1.552.176-2.256.528-.704.352-1.28.768-1.728 1.248v17.376c.128.32.48.576 1.056.768.608.192 1.296.288 2.064.288 1.792 0 3.216-.944 4.272-2.832s1.584-4.672 1.584-8.352c0-3.104-.448-5.376-1.344-6.816-.896-1.472-2.112-2.208-3.648-2.208Zm29.28 23.184c-4.384 0-7.632-1.232-9.744-3.696-2.112-2.496-3.168-5.888-3.168-10.176 0-2.912.544-5.424 1.632-7.536 1.088-2.112 2.608-3.712 4.56-4.8 1.984-1.12 4.304-1.68 6.96-1.68 3.36 0 5.92.848 7.68 2.544 1.792 1.696 2.72 4.096 2.784 7.2 0 2.048-.144 3.696-.432 4.944h-15.024c.16 2.72.816 4.8 1.968 6.24 1.184 1.408 2.832 2.112 4.944 2.112 1.184 0 2.416-.192 3.696-.576 1.312-.416 2.368-.88 3.168-1.392l1.344 2.928c-.832.928-2.256 1.808-4.272 2.64-1.984.832-4.016 1.248-6.096 1.248Zm3.072-16.368.048-2.016c0-2.016-.272-3.552-.816-4.608-.544-1.056-1.472-1.584-2.784-1.584-1.344 0-2.384.592-3.12 1.776-.736 1.152-1.136 3.296-1.2 6.432h7.872Zm25.921-15.84-3.744-.624v-3.36h12.048l13.248 20.448 2.688 5.76V285.39l-4.08-.624v-3.36h12.288v3.36l-3.648.624v31.68h-7.056l-14.064-21.936-3.168-6.336v24.576l5.088.528v3.168h-13.344v-3.168l3.744-.528V285.39Zm47.601 32.208c-4.384 0-7.632-1.232-9.744-3.696-2.112-2.496-3.168-5.888-3.168-10.176 0-2.912.544-5.424 1.632-7.536 1.088-2.112 2.608-3.712 4.56-4.8 1.984-1.12 4.304-1.68 6.96-1.68 3.36 0 5.92.848 7.68 2.544 1.792 1.696 2.72 4.096 2.784 7.2 0 2.048-.144 3.696-.432 4.944h-15.024c.16 2.72.816 4.8 1.968 6.24 1.184 1.408 2.832 2.112 4.944 2.112 1.184 0 2.416-.192 3.696-.576 1.312-.416 2.368-.88 3.168-1.392l1.344 2.928c-.832.928-2.256 1.808-4.272 2.64-1.984.832-4.016 1.248-6.096 1.248Zm3.072-16.368.048-2.016c0-2.016-.272-3.552-.816-4.608-.544-1.056-1.472-1.584-2.784-1.584-1.344 0-2.384.592-3.12 1.776-.736 1.152-1.136 3.296-1.2 6.432h7.872Zm8.242-10.8h13.152v3.024l-3.216.528 3.264 11.952 1.008 4.752.864-4.752 4.128-15.504h6.48l4.752 15.504 1.008 4.704.96-4.704 3.024-11.904-3.456-.576v-3.024h10.56v3.024l-2.304.528-7.248 23.472h-6.096l-4.752-14.688-1.008-5.568-.72 5.568-4.272 14.688h-6.24l-7.632-23.472-2.256-.528v-3.024Zm49.239 22.656c.224.352.736.672 1.536.96a7.589 7.589 0 0 0 2.496.432c1.312 0 2.304-.272 2.976-.816.704-.576 1.056-1.312 1.056-2.208 0-.96-.448-1.744-1.344-2.352-.896-.64-2.368-1.408-4.416-2.304l-1.824-.816c-2.08-.928-3.648-2.048-4.704-3.36-1.024-1.344-1.536-3.04-1.536-5.088 0-1.472.432-2.784 1.296-3.936.864-1.184 2.112-2.112 3.744-2.784 1.632-.672 3.552-1.008 5.76-1.008 1.536 0 2.864.096 3.984.288a46.33 46.33 0 0 1 3.408.72c.768.224 1.344.352 1.728.384v6.528h-4.272l-1.248-3.696c-.16-.288-.544-.544-1.152-.768-.608-.256-1.296-.384-2.064-.384-1.216 0-2.176.272-2.88.816-.704.512-1.056 1.216-1.056 2.112 0 1.024.4 1.84 1.2 2.448.8.576 2.08 1.264 3.84 2.064l1.008.432c2.592 1.088 4.624 2.272 6.096 3.552 1.472 1.248 2.208 2.976 2.208 5.184 0 2.368-.944 4.32-2.832 5.856-1.888 1.504-4.672 2.256-8.352 2.256-1.696 0-3.2-.144-4.512-.432a52.332 52.332 0 0 1-4.32-1.056l-1.584-.432v-6.384h4.56l1.2 3.792Zm21.856-30.672-3.36-.624v-2.928l9.6-1.152h.144l1.392 1.008v34.752l3.12.432v3.168h-13.968v-3.168l3.072-.432v-31.056Zm26.388 35.184c-4.384 0-7.632-1.232-9.744-3.696-2.112-2.496-3.168-5.888-3.168-10.176 0-2.912.544-5.424 1.632-7.536 1.088-2.112 2.608-3.712 4.56-4.8 1.984-1.12 4.304-1.68 6.96-1.68 3.36 0 5.92.848 7.68 2.544 1.792 1.696 2.72 4.096 2.784 7.2 0 2.048-.144 3.696-.432 4.944h-15.024c.16 2.72.816 4.8 1.968 6.24 1.184 1.408 2.832 2.112 4.944 2.112 1.184 0 2.416-.192 3.696-.576 1.312-.416 2.368-.88 3.168-1.392l1.344 2.928c-.832.928-2.256 1.808-4.272 2.64-1.984.832-4.016 1.248-6.096 1.248Zm3.072-16.368.048-2.016c0-2.016-.272-3.552-.816-4.608-.544-1.056-1.472-1.584-2.784-1.584-1.344 0-2.384.592-3.12 1.776-.736 1.152-1.136 3.296-1.2 6.432h7.872Zm19.234 16.272c-2.112 0-3.68-.48-4.704-1.44-.992-.992-1.488-2.512-1.488-4.56v-17.088h-2.928v-2.784l.96-.384c.768-.256 1.44-.528 2.016-.816.64-.608 1.152-1.408 1.536-2.4.48-1.152 1.008-2.768 1.584-4.848h4.464l.288 7.2h6.864v4.032h-6.768v12.72c0 1.76.048 2.992.144 3.696.096.704.272 1.168.528 1.392.288.192.8.288 1.536.288 1.504 0 2.928-.256 4.272-.768l1.008 3.024c-.896.736-2.224 1.376-3.984 1.92a17.95 17.95 0 0 1-5.328.816Zm19.594 0c-2.112 0-3.68-.48-4.704-1.44-.992-.992-1.488-2.512-1.488-4.56v-17.088h-2.928v-2.784l.96-.384c.768-.256 1.44-.528 2.016-.816.64-.608 1.152-1.408 1.536-2.4.48-1.152 1.008-2.768 1.584-4.848h4.464l.288 7.2h6.861v4.032h-6.765v12.72c0 1.76.048 2.992.144 3.696.096.704.272 1.168.528 1.392.288.192.8.288 1.533.288 1.51 0 2.93-.256 4.27-.768l1.01 3.024c-.89.736-2.22 1.376-3.98 1.92-1.76.544-3.537.816-5.329.816Zm23.869.096c-4.39 0-7.64-1.232-9.75-3.696-2.11-2.496-3.17-5.888-3.17-10.176 0-2.912.55-5.424 1.64-7.536 1.08-2.112 2.6-3.712 4.56-4.8 1.98-1.12 4.3-1.68 6.96-1.68 3.36 0 5.92.848 7.68 2.544 1.79 1.696 2.72 4.096 2.78 7.2 0 2.048-.14 3.696-.43 4.944h-15.03c.16 2.72.82 4.8 1.97 6.24 1.19 1.408 2.83 2.112 4.95 2.112 1.18 0 2.41-.192 3.69-.576 1.31-.416 2.37-.88 3.17-1.392l1.34 2.928c-.83.928-2.25 1.808-4.27 2.64-1.98.832-4.01 1.248-6.09 1.248Zm3.07-16.368.05-2.016c0-2.016-.28-3.552-.82-4.608-.54-1.056-1.47-1.584-2.78-1.584-1.35 0-2.39.592-3.12 1.776-.74 1.152-1.14 3.296-1.2 6.432h7.87Zm11.17 12.672 2.93-.432v-18.048l-2.84-.864v-3.744l7.97-1.056h.15l1.34 1.008v1.152l-.14 3.984h.14c.22-.736.74-1.584 1.54-2.544.8-.992 1.8-1.84 3.02-2.544a7.8 7.8 0 0 1 4.03-1.104c.83 0 1.47.112 1.92.336v8.352a6.503 6.503 0 0 0-1.68-.912c-.57-.224-1.33-.336-2.25-.336-1.16 0-2.2.16-3.12.48-.93.288-1.67.624-2.21 1.008v14.832l5.28.48v3.12h-16.08v-3.168Z"/>
  <path fill="#070211" fill-opacity=".6" d="M370.703 375.07h-4.489v-14.545h4.688c1.411 0 2.618.291 3.622.873 1.004.578 1.773 1.409 2.308 2.493.535 1.08.803 2.372.803 3.878 0 1.515-.27 2.82-.81 3.914a5.759 5.759 0 0 1-2.358 2.514c-1.032.582-2.287.873-3.764.873Zm-2.727-1.562h2.613c1.203 0 2.2-.232 2.991-.696a4.292 4.292 0 0 0 1.768-1.982c.388-.857.582-1.877.582-3.061 0-1.174-.191-2.185-.575-3.032-.383-.853-.956-1.506-1.719-1.961-.762-.459-1.711-.689-2.848-.689h-2.812v11.421Zm16.818 1.79c-.985 0-1.849-.235-2.592-.704-.739-.468-1.317-1.124-1.733-1.967-.412-.843-.618-1.828-.618-2.954 0-1.137.206-2.129.618-2.976.416-.848.994-1.506 1.733-1.975.743-.468 1.607-.703 2.592-.703.985 0 1.847.235 2.585.703.744.469 1.321 1.127 1.733 1.975.417.847.625 1.839.625 2.976 0 1.126-.208 2.111-.625 2.954-.412.843-.989 1.499-1.733 1.967-.738.469-1.6.704-2.585.704Zm0-1.506c.748 0 1.364-.192 1.847-.575.483-.384.84-.888 1.072-1.513a5.791 5.791 0 0 0 .348-2.031c0-.73-.116-1.409-.348-2.039a3.437 3.437 0 0 0-1.072-1.527c-.483-.388-1.099-.582-1.847-.582s-1.364.194-1.847.582c-.483.389-.84.897-1.072 1.527a5.852 5.852 0 0 0-.348 2.039c0 .729.116 1.406.348 2.031a3.394 3.394 0 0 0 1.072 1.513c.483.383 1.099.575 1.847.575Zm9.178-13.267v14.545h-1.676v-14.545h1.676Zm7.502 14.773c-.985 0-1.849-.235-2.593-.704-.738-.468-1.316-1.124-1.733-1.967-.411-.843-.617-1.828-.617-2.954 0-1.137.206-2.129.617-2.976.417-.848.995-1.506 1.733-1.975.744-.468 1.608-.703 2.593-.703.985 0 1.846.235 2.585.703.743.469 1.321 1.127 1.733 1.975.417.847.625 1.839.625 2.976 0 1.126-.208 2.111-.625 2.954-.412.843-.99 1.499-1.733 1.967-.739.469-1.6.704-2.585.704Zm0-1.506c.748 0 1.363-.192 1.846-.575a3.395 3.395 0 0 0 1.073-1.513 5.791 5.791 0 0 0 .348-2.031c0-.73-.116-1.409-.348-2.039a3.439 3.439 0 0 0-1.073-1.527c-.483-.388-1.098-.582-1.846-.582s-1.364.194-1.847.582c-.483.389-.84.897-1.072 1.527a5.852 5.852 0 0 0-.348 2.039c0 .729.116 1.406.348 2.031a3.394 3.394 0 0 0 1.072 1.513c.483.383 1.099.575 1.847.575Zm7.501 1.278v-10.909h1.62v1.648h.113c.199-.54.559-.978 1.08-1.314a3.179 3.179 0 0 1 1.761-.504c.123 0 .277.002.462.007s.324.012.419.021v1.705a4.862 4.862 0 0 0-.391-.064 3.846 3.846 0 0 0-.632-.05c-.53 0-1.003.111-1.42.334a2.517 2.517 0 0 0-.98.909 2.448 2.448 0 0 0-.355 1.314v6.903h-1.677Zm20.794-8.466-1.506.427a2.773 2.773 0 0 0-.419-.732 2.041 2.041 0 0 0-.738-.597c-.313-.156-.713-.234-1.2-.234-.668 0-1.224.154-1.669.462-.441.303-.661.689-.661 1.157 0 .417.152.746.455.988.303.241.776.442 1.42.603l1.619.398c.976.237 1.702.599 2.181 1.087.478.483.717 1.105.717 1.868a2.77 2.77 0 0 1-.54 1.676c-.355.492-.852.88-1.491 1.164-.639.285-1.383.427-2.23.427-1.113 0-2.034-.242-2.763-.725-.729-.483-1.191-1.188-1.385-2.116l1.591-.398c.151.587.438 1.027.859 1.321.426.294.983.44 1.669.44.782 0 1.402-.165 1.861-.497.464-.336.696-.738.696-1.207 0-.379-.132-.696-.398-.952-.265-.26-.672-.454-1.221-.582l-1.818-.426c-.999-.237-1.733-.604-2.202-1.101-.464-.502-.696-1.13-.696-1.882 0-.616.173-1.16.518-1.634.351-.473.827-.845 1.428-1.115.606-.27 1.292-.405 2.06-.405 1.079 0 1.927.237 2.542.71a3.832 3.832 0 0 1 1.321 1.875Zm2.722 8.466v-10.909h1.676v10.909h-1.676Zm.852-12.727c-.326 0-.608-.111-.845-.334a1.071 1.071 0 0 1-.348-.802c0-.313.116-.58.348-.803.237-.222.519-.334.845-.334.327 0 .606.112.838.334.237.223.356.49.356.803 0 .312-.119.58-.356.802a1.165 1.165 0 0 1-.838.334Zm8.639 1.818v1.421h-5.654v-1.421h5.654Zm-4.006-2.613h1.676v10.397c0 .474.069.829.206 1.066.142.232.322.388.54.468.222.076.457.114.703.114.185 0 .336-.009.454-.028l.284-.057.341 1.505a3.255 3.255 0 0 1-.475.128 3.472 3.472 0 0 1-.775.071 3.37 3.37 0 0 1-1.392-.305 2.776 2.776 0 0 1-1.122-.93c-.293-.417-.44-.943-.44-1.577v-10.852Zm15.362 13.778c-.691 0-1.319-.13-1.882-.391a3.228 3.228 0 0 1-1.342-1.143c-.332-.502-.498-1.108-.498-1.818 0-.625.124-1.132.37-1.52a2.6 2.6 0 0 1 .987-.923 5.17 5.17 0 0 1 1.364-.498 17.108 17.108 0 0 1 1.512-.27 65.775 65.775 0 0 1 1.613-.191c.416-.048.719-.126.909-.235.194-.109.291-.298.291-.568v-.057c0-.7-.192-1.245-.575-1.633-.379-.388-.954-.583-1.726-.583-.8 0-1.428.176-1.882.526-.455.35-.774.724-.959 1.122l-1.591-.568c.284-.663.663-1.179 1.136-1.548a4.269 4.269 0 0 1 1.563-.782 6.508 6.508 0 0 1 1.676-.227c.35 0 .753.043 1.207.128.46.081.902.249 1.328.504.431.256.789.642 1.073 1.158.284.516.426 1.207.426 2.074v7.187h-1.676v-1.477h-.085c-.114.237-.303.49-.568.76-.266.27-.618.5-1.059.689-.44.189-.977.284-1.612.284Zm.256-1.506c.663 0 1.221-.13 1.676-.39.459-.261.805-.597 1.037-1.009.237-.412.355-.845.355-1.3v-1.534c-.071.086-.227.164-.469.235a7.96 7.96 0 0 1-.824.177 34.261 34.261 0 0 1-1.605.213c-.435.057-.843.15-1.221.277-.374.123-.677.31-.909.561-.228.247-.341.583-.341 1.009 0 .582.215 1.023.646 1.321.436.294.987.44 1.655.44Zm7.803 1.25v-10.909h1.62v1.705h.142a2.737 2.737 0 0 1 1.101-1.357c.506-.326 1.115-.49 1.825-.49.72 0 1.319.164 1.797.49.483.322.859.774 1.129 1.357h.114a3.175 3.175 0 0 1 1.257-1.343c.558-.336 1.228-.504 2.01-.504.975 0 1.773.306 2.393.916.62.606.931 1.551.931 2.834v7.301h-1.677v-7.301c0-.805-.22-1.38-.66-1.726-.44-.345-.959-.518-1.555-.518-.768 0-1.362.232-1.783.696-.422.459-.632 1.042-.632 1.747v7.102h-1.705v-7.471c0-.621-.201-1.12-.604-1.499-.402-.383-.92-.575-1.555-.575-.436 0-.843.116-1.221.348a2.622 2.622 0 0 0-.91.966c-.227.407-.34.878-.34 1.413v6.818h-1.677Zm21.957.228c-1.051 0-1.958-.232-2.72-.696-.758-.469-1.342-1.123-1.754-1.961-.408-.842-.611-1.823-.611-2.94s.203-2.102.611-2.955c.412-.857.984-1.524 1.718-2.002.739-.483 1.601-.725 2.586-.725.568 0 1.129.095 1.683.284.554.19 1.058.497 1.513.924.454.421.816.98 1.086 1.676.27.696.405 1.553.405 2.571v.71h-8.409v-1.449h6.705c0-.615-.124-1.165-.37-1.648a2.775 2.775 0 0 0-1.037-1.143c-.445-.279-.97-.419-1.576-.419-.668 0-1.246.166-1.733.497a3.271 3.271 0 0 0-1.115 1.278 3.75 3.75 0 0 0-.391 1.691v.966c0 .824.142 1.522.426 2.095a3.083 3.083 0 0 0 1.2 1.3c.512.293 1.106.44 1.783.44.44 0 .838-.062 1.193-.185.36-.128.67-.317.931-.568.26-.256.461-.573.603-.952l1.62.455a3.596 3.596 0 0 1-.86 1.449 4.18 4.18 0 0 1-1.491.966c-.592.227-1.257.341-1.996.341Zm11.811-11.137v1.421h-5.653v-1.421h5.653Zm-4.006-2.613h1.677v10.397c0 .474.068.829.206 1.066.142.232.322.388.539.468.223.076.457.114.703.114.185 0 .337-.009.455-.028l.284-.057.341 1.505a3.275 3.275 0 0 1-.476.128 3.462 3.462 0 0 1-.774.071c-.473 0-.938-.101-1.392-.305a2.77 2.77 0 0 1-1.122-.93c-.294-.417-.441-.943-.441-1.577v-10.852Zm16.584 13.75c-1.022 0-1.903-.242-2.642-.725-.738-.483-1.307-1.148-1.704-1.996-.398-.847-.597-1.815-.597-2.904 0-1.108.204-2.086.611-2.934.412-.852.985-1.517 1.719-1.995.738-.483 1.6-.725 2.585-.725.767 0 1.458.142 2.074.426a3.975 3.975 0 0 1 1.512 1.193c.393.512.637 1.108.732 1.79h-1.676c-.128-.497-.412-.937-.852-1.321-.436-.388-1.023-.582-1.762-.582-.653 0-1.226.17-1.718.511-.488.336-.869.812-1.144 1.428-.27.611-.405 1.328-.405 2.152 0 .843.133 1.576.398 2.201.27.625.649 1.111 1.136 1.456.493.346 1.07.519 1.733.519a3 3 0 0 0 1.186-.227c.355-.152.656-.37.902-.654.247-.284.422-.625.526-1.023h1.676a3.894 3.894 0 0 1-.703 1.741 3.926 3.926 0 0 1-1.47 1.221c-.606.298-1.312.448-2.117.448Zm11.172 0c-.985 0-1.849-.235-2.592-.704-.739-.468-1.316-1.124-1.733-1.967-.412-.843-.618-1.828-.618-2.954 0-1.137.206-2.129.618-2.976.417-.848.994-1.506 1.733-1.975.743-.468 1.607-.703 2.592-.703.985 0 1.847.235 2.585.703.744.469 1.321 1.127 1.733 1.975.417.847.625 1.839.625 2.976 0 1.126-.208 2.111-.625 2.954-.412.843-.989 1.499-1.733 1.967-.738.469-1.6.704-2.585.704Zm0-1.506c.748 0 1.364-.192 1.847-.575.483-.384.84-.888 1.072-1.513a5.791 5.791 0 0 0 .348-2.031c0-.73-.116-1.409-.348-2.039a3.437 3.437 0 0 0-1.072-1.527c-.483-.388-1.099-.582-1.847-.582s-1.364.194-1.846.582a3.439 3.439 0 0 0-1.073 1.527 5.852 5.852 0 0 0-.348 2.039c0 .729.116 1.406.348 2.031.232.625.59 1.129 1.073 1.513.482.383 1.098.575 1.846.575Zm9.178-5.284v6.562h-1.676v-10.909h1.619v1.705h.142a3.115 3.115 0 0 1 1.165-1.335c.521-.341 1.193-.512 2.017-.512.739 0 1.385.152 1.939.455.554.298.985.753 1.293 1.363.307.606.461 1.373.461 2.301v6.932h-1.676v-6.818c0-.857-.222-1.524-.667-2.003-.446-.483-1.056-.724-1.833-.724-.535 0-1.013.116-1.435.348-.416.232-.745.57-.987 1.015-.241.446-.362.985-.362 1.62Zm17.75-1.904-1.505.427a2.83 2.83 0 0 0-.419-.732 2.045 2.045 0 0 0-.739-.597c-.312-.156-.713-.234-1.2-.234-.668 0-1.224.154-1.669.462-.441.303-.661.689-.661 1.157 0 .417.152.746.455.988.303.241.776.442 1.42.603l1.62.398c.975.237 1.702.599 2.18 1.087.478.483.717 1.105.717 1.868a2.77 2.77 0 0 1-.54 1.676c-.355.492-.852.88-1.491 1.164-.639.285-1.383.427-2.23.427-1.113 0-2.034-.242-2.763-.725-.729-.483-1.191-1.188-1.385-2.116l1.591-.398c.152.587.438 1.027.859 1.321.427.294.983.44 1.669.44.782 0 1.402-.165 1.861-.497.464-.336.696-.738.696-1.207a1.27 1.27 0 0 0-.397-.952c-.266-.26-.673-.454-1.222-.582l-1.818-.426c-.999-.237-1.733-.604-2.202-1.101-.464-.502-.696-1.13-.696-1.882 0-.616.173-1.16.519-1.634.35-.473.826-.845 1.427-1.115.606-.27 1.293-.405 2.06-.405 1.079 0 1.927.237 2.542.71a3.826 3.826 0 0 1 1.321 1.875Zm7.296 8.694c-1.051 0-1.958-.232-2.72-.696-.758-.469-1.342-1.123-1.754-1.961-.407-.842-.611-1.823-.611-2.94s.204-2.102.611-2.955c.412-.857.985-1.524 1.719-2.002.738-.483 1.6-.725 2.585-.725.568 0 1.129.095 1.683.284.554.19 1.058.497 1.513.924.454.421.817.98 1.086 1.676.27.696.405 1.553.405 2.571v.71h-8.409v-1.449h6.705c0-.615-.123-1.165-.37-1.648a2.775 2.775 0 0 0-1.037-1.143c-.445-.279-.97-.419-1.576-.419-.668 0-1.246.166-1.733.497a3.271 3.271 0 0 0-1.115 1.278 3.75 3.75 0 0 0-.391 1.691v.966c0 .824.142 1.522.426 2.095a3.079 3.079 0 0 0 1.201 1.3c.511.293 1.105.44 1.782.44.441 0 .838-.062 1.193-.185.36-.128.67-.317.931-.568.26-.256.461-.573.603-.952l1.62.455a3.596 3.596 0 0 1-.86 1.449 4.18 4.18 0 0 1-1.491.966c-.592.227-1.257.341-1.996.341Zm11.499 0c-1.023 0-1.904-.242-2.642-.725-.739-.483-1.307-1.148-1.705-1.996-.398-.847-.596-1.815-.596-2.904 0-1.108.203-2.086.61-2.934.412-.852.985-1.517 1.719-1.995.739-.483 1.601-.725 2.585-.725.767 0 1.459.142 2.074.426a3.97 3.97 0 0 1 1.513 1.193c.393.512.637 1.108.732 1.79h-1.677c-.127-.497-.412-.937-.852-1.321-.435-.388-1.023-.582-1.761-.582-.654 0-1.227.17-1.719.511-.488.336-.869.812-1.143 1.428-.27.611-.405 1.328-.405 2.152 0 .843.132 1.576.397 2.201.27.625.649 1.111 1.137 1.456.492.346 1.07.519 1.733.519.435 0 .831-.076 1.186-.227.355-.152.656-.37.902-.654.246-.284.421-.625.525-1.023h1.677a3.896 3.896 0 0 1-.704 1.741 3.926 3.926 0 0 1-1.47 1.221c-.606.298-1.311.448-2.116.448Zm11.484-11.137v1.421h-5.653v-1.421h5.653Zm-4.006-2.613h1.677v10.397c0 .474.068.829.206 1.066.142.232.322.388.539.468.223.076.457.114.703.114.185 0 .337-.009.455-.028l.284-.057.341 1.505a3.275 3.275 0 0 1-.476.128 3.456 3.456 0 0 1-.774.071 3.37 3.37 0 0 1-1.392-.305 2.77 2.77 0 0 1-1.122-.93c-.294-.417-.441-.943-.441-1.577v-10.852Zm10.984 13.75c-1.051 0-1.958-.232-2.72-.696-.758-.469-1.342-1.123-1.754-1.961-.407-.842-.611-1.823-.611-2.94s.204-2.102.611-2.955c.412-.857.985-1.524 1.718-2.002.739-.483 1.601-.725 2.586-.725.568 0 1.129.095 1.683.284.554.19 1.058.497 1.513.924.454.421.816.98 1.086 1.676.27.696.405 1.553.405 2.571v.71h-8.409v-1.449h6.705c0-.615-.123-1.165-.37-1.648a2.775 2.775 0 0 0-1.037-1.143c-.445-.279-.97-.419-1.576-.419-.668 0-1.246.166-1.733.497a3.271 3.271 0 0 0-1.115 1.278 3.75 3.75 0 0 0-.391 1.691v.966c0 .824.142 1.522.426 2.095a3.083 3.083 0 0 0 1.2 1.3c.512.293 1.106.44 1.783.44.44 0 .838-.062 1.193-.185.36-.128.67-.317.931-.568.26-.256.461-.573.603-.952l1.62.455a3.596 3.596 0 0 1-.86 1.449 4.18 4.18 0 0 1-1.491.966c-.592.227-1.257.341-1.996.341Zm11.811-11.137v1.421h-5.653v-1.421h5.653Zm-4.005-2.613h1.676v10.397c0 .474.068.829.206 1.066.142.232.322.388.539.468.223.076.457.114.704.114.184 0 .336-.009.454-.028l.284-.057.341 1.505a3.275 3.275 0 0 1-.476.128 3.456 3.456 0 0 1-.774.071 3.37 3.37 0 0 1-1.392-.305 2.77 2.77 0 0 1-1.122-.93c-.294-.417-.44-.943-.44-1.577v-10.852Zm13.402 9.062v-6.449h1.676v10.909h-1.676v-1.846h-.114a3.585 3.585 0 0 1-1.193 1.413c-.54.384-1.222.575-2.046.575-.682 0-1.288-.149-1.818-.447-.53-.303-.947-.758-1.25-1.364-.303-.611-.454-1.38-.454-2.308v-6.932h1.676v6.818c0 .796.222 1.43.667 1.904.45.473 1.023.71 1.719.71.417 0 .84-.106 1.271-.32a2.76 2.76 0 0 0 1.094-.98c.298-.44.448-1.001.448-1.683Zm4.746 4.46v-10.909h1.619v1.648h.114c.198-.54.558-.978 1.079-1.314a3.179 3.179 0 0 1 1.761-.504c.124 0 .277.002.462.007s.324.012.419.021v1.705a4.891 4.891 0 0 0-.39-.064 3.867 3.867 0 0 0-.633-.05c-.53 0-1.003.111-1.42.334a2.517 2.517 0 0 0-.98.909 2.448 2.448 0 0 0-.355 1.314v6.903h-1.676Zm7.413.114c-.351 0-.651-.126-.902-.376a1.232 1.232 0 0 1-.377-.902c0-.351.126-.652.377-.902a1.23 1.23 0 0 1 .902-.377c.35 0 .651.126.902.377.251.25.376.551.376.902 0 .232-.059.445-.178.639-.113.194-.267.35-.461.468-.19.114-.403.171-.639.171Zm21.843-10.114h-1.762a3.656 3.656 0 0 0-.547-1.335 3.651 3.651 0 0 0-.937-.966 3.965 3.965 0 0 0-1.215-.596 4.835 4.835 0 0 0-1.392-.199c-.88 0-1.678.222-2.393.667-.71.445-1.276 1.101-1.698 1.968-.416.866-.625 1.929-.625 3.189 0 1.259.209 2.322.625 3.189.422.866.988 1.522 1.698 1.967a4.438 4.438 0 0 0 2.393.667c.483 0 .947-.066 1.392-.198.446-.133.85-.329 1.215-.59a3.725 3.725 0 0 0 1.484-2.308h1.762a5.875 5.875 0 0 1-.725 1.996 5.447 5.447 0 0 1-1.307 1.498 5.713 5.713 0 0 1-1.754.931 6.542 6.542 0 0 1-2.067.319c-1.24 0-2.343-.303-3.309-.909-.966-.606-1.726-1.468-2.28-2.585-.554-1.118-.831-2.443-.831-3.977 0-1.535.277-2.86.831-3.978.554-1.117 1.314-1.979 2.28-2.585.966-.606 2.069-.909 3.309-.909.734 0 1.423.107 2.067.32a5.622 5.622 0 0 1 1.754.937c.521.407.957.904 1.307 1.492.351.582.592 1.247.725 1.995Zm7.05 10.228c-.984 0-1.849-.235-2.592-.704-.739-.468-1.316-1.124-1.733-1.967-.412-.843-.618-1.828-.618-2.954 0-1.137.206-2.129.618-2.976.417-.848.994-1.506 1.733-1.975.743-.468 1.608-.703 2.592-.703.985 0 1.847.235 2.586.703.743.469 1.321 1.127 1.733 1.975.416.847.625 1.839.625 2.976 0 1.126-.209 2.111-.625 2.954-.412.843-.99 1.499-1.733 1.967-.739.469-1.601.704-2.586.704Zm0-1.506c.749 0 1.364-.192 1.847-.575.483-.384.84-.888 1.072-1.513a5.791 5.791 0 0 0 .348-2.031c0-.73-.116-1.409-.348-2.039a3.437 3.437 0 0 0-1.072-1.527c-.483-.388-1.098-.582-1.847-.582-.748 0-1.363.194-1.846.582a3.439 3.439 0 0 0-1.073 1.527 5.852 5.852 0 0 0-.348 2.039c0 .729.116 1.406.348 2.031.232.625.59 1.129 1.073 1.513.483.383 1.098.575 1.846.575Zm9.178-5.284v6.562h-1.676v-10.909h1.62v1.705h.142a3.113 3.113 0 0 1 1.164-1.335c.521-.341 1.194-.512 2.017-.512.739 0 1.385.152 1.939.455.554.298.985.753 1.293 1.363.308.606.462 1.373.462 2.301v6.932h-1.677v-6.818c0-.857-.222-1.524-.667-2.003-.445-.483-1.056-.724-1.833-.724-.535 0-1.013.116-1.434.348-.417.232-.746.57-.987 1.015-.242.446-.363.985-.363 1.62Zm17.751-1.904-1.506.427a2.801 2.801 0 0 0-.419-.732 2.045 2.045 0 0 0-.739-.597c-.312-.156-.712-.234-1.2-.234-.668 0-1.224.154-1.669.462-.44.303-.66.689-.66 1.157 0 .417.151.746.454.988.303.241.777.442 1.421.603l1.619.398c.975.237 1.702.599 2.18 1.087.478.483.718 1.105.718 1.868a2.77 2.77 0 0 1-.54 1.676c-.355.492-.852.88-1.492 1.164-.639.285-1.382.427-2.23.427-1.112 0-2.033-.242-2.763-.725-.729-.483-1.19-1.188-1.385-2.116l1.591-.398c.152.587.438 1.027.86 1.321.426.294.982.44 1.669.44.781 0 1.401-.165 1.861-.497.464-.336.696-.738.696-1.207a1.27 1.27 0 0 0-.398-.952c-.265-.26-.672-.454-1.222-.582l-1.818-.426c-.999-.237-1.733-.604-2.202-1.101-.464-.502-.696-1.13-.696-1.882 0-.616.173-1.16.519-1.634.35-.473.826-.845 1.427-1.115.606-.27 1.293-.405 2.06-.405 1.08 0 1.927.237 2.543.71a3.839 3.839 0 0 1 1.321 1.875Zm7.296 8.694c-1.052 0-1.958-.232-2.721-.696a4.68 4.68 0 0 1-1.754-1.961c-.407-.842-.611-1.823-.611-2.94s.204-2.102.611-2.955c.412-.857.985-1.524 1.719-2.002.738-.483 1.6-.725 2.585-.725.568 0 1.129.095 1.683.284.554.19 1.059.497 1.513.924.455.421.817.98 1.087 1.676s.405 1.553.405 2.571v.71h-8.41v-1.449h6.705c0-.615-.123-1.165-.369-1.648a2.782 2.782 0 0 0-1.037-1.143c-.445-.279-.971-.419-1.577-.419-.668 0-1.245.166-1.733.497a3.271 3.271 0 0 0-1.115 1.278 3.763 3.763 0 0 0-.391 1.691v.966c0 .824.142 1.522.427 2.095a3.07 3.07 0 0 0 1.2 1.3c.511.293 1.105.44 1.783.44.44 0 .838-.062 1.193-.185.36-.128.67-.317.93-.568.261-.256.462-.573.604-.952l1.619.455a3.594 3.594 0 0 1-.859 1.449c-.403.412-.9.734-1.492.966-.592.227-1.257.341-1.995.341Zm14.509 3.863v-5.767h-.142c-.123.199-.298.45-.525.753-.227.298-.552.566-.973.803-.422.232-.983.348-1.683.348-.909 0-1.712-.23-2.408-.689-.696-.464-1.241-1.118-1.634-1.961-.393-.847-.589-1.849-.589-3.004 0-1.146.196-2.14.589-2.983.393-.843.94-1.494 1.641-1.953.701-.459 1.51-.689 2.429-.689.71 0 1.271.119 1.683.355.417.232.734.497.952.796.222.293.395.535.518.724h.199v-1.733h1.62v15h-1.677Zm-3.096-5.369c.672 0 1.24-.175 1.704-.526.464-.355.817-.845 1.059-1.47.241-.63.362-1.356.362-2.18 0-.815-.119-1.527-.355-2.138-.237-.616-.587-1.094-1.051-1.435-.464-.345-1.037-.518-1.719-.518-.71 0-1.302.182-1.776.547-.468.36-.821.85-1.058 1.47-.232.615-.348 1.307-.348 2.074 0 .776.118 1.482.355 2.116.242.63.597 1.132 1.066 1.506.473.369 1.06.554 1.761.554Zm14.716-3.182v-6.449h1.676v10.909h-1.676v-1.846h-.114a3.576 3.576 0 0 1-1.193 1.413c-.54.384-1.222.575-2.045.575-.682 0-1.288-.149-1.819-.447-.53-.303-.947-.758-1.25-1.364-.303-.611-.454-1.38-.454-2.308v-6.932h1.676v6.818c0 .796.222 1.43.668 1.904.449.473 1.022.71 1.718.71.417 0 .841-.106 1.272-.32.435-.213.8-.539 1.093-.98.299-.44.448-1.001.448-1.683Zm7.956 4.716c-.691 0-1.319-.13-1.882-.391a3.228 3.228 0 0 1-1.342-1.143c-.332-.502-.497-1.108-.497-1.818 0-.625.123-1.132.369-1.52a2.6 2.6 0 0 1 .987-.923 5.182 5.182 0 0 1 1.364-.498 17.108 17.108 0 0 1 1.512-.27 65.775 65.775 0 0 1 1.613-.191c.416-.048.719-.126.909-.235.194-.109.291-.298.291-.568v-.057c0-.7-.192-1.245-.575-1.633-.379-.388-.954-.583-1.726-.583-.8 0-1.428.176-1.882.526-.455.35-.774.724-.959 1.122l-1.591-.568c.284-.663.663-1.179 1.136-1.548a4.269 4.269 0 0 1 1.563-.782 6.508 6.508 0 0 1 1.676-.227c.35 0 .753.043 1.207.128.46.081.902.249 1.329.504.43.256.788.642 1.072 1.158.284.516.426 1.207.426 2.074v7.187h-1.676v-1.477h-.085c-.114.237-.303.49-.568.76-.266.27-.618.5-1.059.689-.44.189-.977.284-1.612.284Zm.256-1.506c.663 0 1.221-.13 1.676-.39.459-.261.805-.597 1.037-1.009.237-.412.355-.845.355-1.3v-1.534c-.071.086-.227.164-.469.235a7.96 7.96 0 0 1-.824.177 34.261 34.261 0 0 1-1.605.213c-.435.057-.843.15-1.221.277-.374.123-.677.31-.909.561-.228.247-.341.583-.341 1.009 0 .582.215 1.023.646 1.321.436.294.987.44 1.655.44Zm12.548-9.659v1.421h-5.654v-1.421h5.654Zm-4.006-2.613h1.676v10.397c0 .474.069.829.206 1.066.142.232.322.388.54.468.222.076.457.114.703.114.185 0 .336-.009.455-.028l.284-.057.341 1.505a3.311 3.311 0 0 1-.476.128 3.469 3.469 0 0 1-.774.071c-.474 0-.938-.101-1.392-.305a2.778 2.778 0 0 1-1.123-.93c-.293-.417-.44-.943-.44-1.577v-10.852Zm16.726 13.75c-1.051 0-1.958-.232-2.72-.696a4.675 4.675 0 0 1-1.755-1.961c-.407-.842-.61-1.823-.61-2.94s.203-2.102.61-2.955c.412-.857.985-1.524 1.719-2.002.739-.483 1.601-.725 2.585-.725.569 0 1.13.095 1.684.284.554.19 1.058.497 1.512.924.455.421.817.98 1.087 1.676s.405 1.553.405 2.571v.71h-8.409v-1.449h6.704c0-.615-.123-1.165-.369-1.648a2.775 2.775 0 0 0-1.037-1.143c-.445-.279-.971-.419-1.577-.419-.667 0-1.245.166-1.733.497a3.287 3.287 0 0 0-1.115 1.278 3.763 3.763 0 0 0-.39 1.691v.966c0 .824.142 1.522.426 2.095a3.083 3.083 0 0 0 1.2 1.3c.512.293 1.106.44 1.783.44.44 0 .838-.062 1.193-.185.36-.128.67-.317.93-.568.261-.256.462-.573.604-.952l1.619.455a3.583 3.583 0 0 1-.859 1.449 4.19 4.19 0 0 1-1.491.966c-.592.227-1.257.341-1.996.341Zm11.47 4.09c-.81 0-1.506-.104-2.088-.312-.582-.204-1.068-.473-1.456-.81a4.42 4.42 0 0 1-.916-1.065l1.335-.938c.152.199.343.427.575.682.232.261.55.486.952.675.407.194.94.291 1.598.291.881 0 1.608-.213 2.18-.639.573-.426.86-1.094.86-2.003v-2.216h-.142a9.139 9.139 0 0 1-.526.739c-.222.289-.544.547-.966.774-.416.223-.98.334-1.69.334-.881 0-1.671-.208-2.372-.625-.696-.417-1.248-1.023-1.655-1.818-.402-.796-.604-1.762-.604-2.898 0-1.117.197-2.09.59-2.919.393-.833.94-1.477 1.64-1.932.701-.459 1.511-.689 2.429-.689.711 0 1.274.119 1.691.355.421.232.743.497.966.796.227.293.402.535.525.724h.171v-1.733h1.619v11.222c0 .937-.213 1.7-.639 2.287a3.637 3.637 0 0 1-1.705 1.299c-.71.28-1.501.419-2.372.419Zm-.057-5.994c.673 0 1.241-.154 1.705-.461.464-.308.817-.751 1.058-1.329.242-.577.362-1.269.362-2.073 0-.786-.118-1.48-.355-2.081-.237-.602-.587-1.073-1.051-1.414-.464-.341-1.037-.511-1.719-.511-.71 0-1.302.18-1.775.54-.469.359-.822.842-1.059 1.448a5.609 5.609 0 0 0-.348 2.018c0 .757.119 1.427.356 2.009.241.578.596 1.033 1.065 1.364.473.327 1.06.49 1.761.49Zm12.415 1.904c-1.051 0-1.958-.232-2.72-.696-.758-.469-1.342-1.123-1.754-1.961-.408-.842-.611-1.823-.611-2.94s.203-2.102.611-2.955c.412-.857.984-1.524 1.718-2.002.739-.483 1.601-.725 2.586-.725.568 0 1.129.095 1.683.284.554.19 1.058.497 1.513.924.454.421.816.98 1.086 1.676.27.696.405 1.553.405 2.571v.71h-8.409v-1.449h6.705c0-.615-.124-1.165-.37-1.648a2.775 2.775 0 0 0-1.037-1.143c-.445-.279-.97-.419-1.576-.419-.668 0-1.246.166-1.733.497a3.271 3.271 0 0 0-1.115 1.278 3.75 3.75 0 0 0-.391 1.691v.966c0 .824.142 1.522.426 2.095a3.083 3.083 0 0 0 1.2 1.3c.512.293 1.106.44 1.783.44.44 0 .838-.062 1.193-.185.36-.128.67-.317.931-.568.26-.256.461-.573.603-.952l1.62.455a3.596 3.596 0 0 1-.86 1.449 4.18 4.18 0 0 1-1.491.966c-.592.227-1.257.341-1.996.341Zm11.811-11.137v1.421h-5.653v-1.421h5.653Zm-4.006-2.613h1.677v10.397c0 .474.068.829.206 1.066.142.232.321.388.539.468.223.076.457.114.703.114.185 0 .337-.009.455-.028l.284-.057.341 1.505a3.275 3.275 0 0 1-.476.128 3.462 3.462 0 0 1-.774.071c-.474 0-.938-.101-1.392-.305a2.77 2.77 0 0 1-1.122-.93c-.294-.417-.441-.943-.441-1.577v-10.852Zm16.584 13.75c-1.023 0-1.903-.242-2.642-.725-.738-.483-1.307-1.148-1.704-1.996-.398-.847-.597-1.815-.597-2.904 0-1.108.204-2.086.611-2.934.412-.852.985-1.517 1.719-1.995.738-.483 1.6-.725 2.585-.725.767 0 1.458.142 2.074.426a3.975 3.975 0 0 1 1.512 1.193c.393.512.637 1.108.732 1.79h-1.676c-.128-.497-.412-.937-.852-1.321-.436-.388-1.023-.582-1.762-.582-.653 0-1.226.17-1.719.511-.487.336-.868.812-1.143 1.428-.27.611-.405 1.328-.405 2.152 0 .843.133 1.576.398 2.201.27.625.649 1.111 1.136 1.456.493.346 1.07.519 1.733.519a3 3 0 0 0 1.186-.227c.355-.152.656-.37.902-.654.247-.284.422-.625.526-1.023h1.676a3.894 3.894 0 0 1-.703 1.741c-.369.511-.86.918-1.47 1.221-.606.298-1.312.448-2.117.448Zm11.172 0c-.985 0-1.849-.235-2.592-.704-.739-.468-1.317-1.124-1.733-1.967-.412-.843-.618-1.828-.618-2.954 0-1.137.206-2.129.618-2.976.416-.848.994-1.506 1.733-1.975.743-.468 1.607-.703 2.592-.703.985 0 1.847.235 2.585.703.744.469 1.321 1.127 1.733 1.975.417.847.625 1.839.625 2.976 0 1.126-.208 2.111-.625 2.954-.412.843-.989 1.499-1.733 1.967-.738.469-1.6.704-2.585.704Zm0-1.506c.748 0 1.364-.192 1.847-.575.483-.384.84-.888 1.072-1.513a5.791 5.791 0 0 0 .348-2.031c0-.73-.116-1.409-.348-2.039a3.437 3.437 0 0 0-1.072-1.527c-.483-.388-1.099-.582-1.847-.582s-1.364.194-1.846.582a3.439 3.439 0 0 0-1.073 1.527 5.852 5.852 0 0 0-.348 2.039c0 .729.116 1.406.348 2.031.232.625.59 1.129 1.073 1.513.482.383 1.098.575 1.846.575Zm9.178-5.284v6.562h-1.676v-10.909h1.619v1.705h.142a3.115 3.115 0 0 1 1.165-1.335c.521-.341 1.193-.512 2.017-.512.739 0 1.385.152 1.939.455.554.298.985.753 1.293 1.363.307.606.461 1.373.461 2.301v6.932h-1.676v-6.818c0-.857-.222-1.524-.668-2.003-.445-.483-1.055-.724-1.832-.724-.535 0-1.013.116-1.435.348-.416.232-.745.57-.987 1.015-.241.446-.362.985-.362 1.62Zm17.75-1.904-1.505.427a2.83 2.83 0 0 0-.419-.732 2.045 2.045 0 0 0-.739-.597c-.312-.156-.713-.234-1.2-.234-.668 0-1.224.154-1.669.462-.441.303-.661.689-.661 1.157 0 .417.152.746.455.988.303.241.776.442 1.42.603l1.619.398c.976.237 1.703.599 2.181 1.087.478.483.717 1.105.717 1.868a2.77 2.77 0 0 1-.54 1.676c-.355.492-.852.88-1.491 1.164-.639.285-1.383.427-2.23.427-1.113 0-2.034-.242-2.763-.725-.729-.483-1.191-1.188-1.385-2.116l1.591-.398c.152.587.438 1.027.859 1.321.427.294.983.44 1.669.44.782 0 1.402-.165 1.861-.497.464-.336.696-.738.696-1.207a1.27 1.27 0 0 0-.397-.952c-.266-.26-.673-.454-1.222-.582l-1.818-.426c-.999-.237-1.733-.604-2.202-1.101-.464-.502-.696-1.13-.696-1.882 0-.616.173-1.16.519-1.634.35-.473.826-.845 1.427-1.115.606-.27 1.293-.405 2.06-.405 1.079 0 1.927.237 2.542.71a3.826 3.826 0 0 1 1.321 1.875Zm7.296 8.694c-1.051 0-1.958-.232-2.72-.696-.758-.469-1.342-1.123-1.754-1.961-.407-.842-.611-1.823-.611-2.94s.204-2.102.611-2.955c.412-.857.985-1.524 1.718-2.002.739-.483 1.601-.725 2.586-.725.568 0 1.129.095 1.683.284.554.19 1.058.497 1.513.924.454.421.817.98 1.086 1.676.27.696.405 1.553.405 2.571v.71h-8.409v-1.449h6.705c0-.615-.123-1.165-.37-1.648a2.775 2.775 0 0 0-1.037-1.143c-.445-.279-.97-.419-1.576-.419-.668 0-1.246.166-1.733.497a3.271 3.271 0 0 0-1.115 1.278 3.75 3.75 0 0 0-.391 1.691v.966c0 .824.142 1.522.426 2.095a3.079 3.079 0 0 0 1.201 1.3c.511.293 1.105.44 1.782.44.441 0 .838-.062 1.193-.185.36-.128.67-.317.931-.568.26-.256.461-.573.603-.952l1.62.455a3.596 3.596 0 0 1-.86 1.449 4.18 4.18 0 0 1-1.491.966c-.592.227-1.257.341-1.996.341Zm11.499 0c-1.023 0-1.904-.242-2.642-.725-.739-.483-1.307-1.148-1.705-1.996-.398-.847-.596-1.815-.596-2.904 0-1.108.203-2.086.61-2.934.412-.852.985-1.517 1.719-1.995.739-.483 1.6-.725 2.585-.725.767 0 1.459.142 2.074.426a3.97 3.97 0 0 1 1.513 1.193c.393.512.637 1.108.732 1.79h-1.677c-.127-.497-.412-.937-.852-1.321-.435-.388-1.023-.582-1.761-.582-.654 0-1.227.17-1.719.511-.488.336-.869.812-1.143 1.428-.27.611-.405 1.328-.405 2.152 0 .843.132 1.576.397 2.201.27.625.649 1.111 1.137 1.456.492.346 1.07.519 1.733.519.435 0 .831-.076 1.186-.227.355-.152.656-.37.902-.654.246-.284.421-.625.525-1.023h1.677a3.896 3.896 0 0 1-.704 1.741 3.926 3.926 0 0 1-1.47 1.221c-.606.298-1.311.448-2.116.448Zm11.484-11.137v1.421h-5.653v-1.421h5.653Zm-4.006-2.613h1.677v10.397c0 .474.068.829.206 1.066.142.232.322.388.539.468.223.076.457.114.703.114.185 0 .337-.009.455-.028l.284-.057.341 1.505a3.275 3.275 0 0 1-.476.128 3.462 3.462 0 0 1-.774.071c-.473 0-.938-.101-1.392-.305a2.77 2.77 0 0 1-1.122-.93c-.294-.417-.441-.943-.441-1.577v-10.852Zm10.984 13.75c-1.051 0-1.958-.232-2.72-.696-.758-.469-1.342-1.123-1.754-1.961-.408-.842-.611-1.823-.611-2.94s.203-2.102.611-2.955c.412-.857.985-1.524 1.718-2.002.739-.483 1.601-.725 2.586-.725.568 0 1.129.095 1.683.284.554.19 1.058.497 1.513.924.454.421.816.98 1.086 1.676.27.696.405 1.553.405 2.571v.71h-8.409v-1.449h6.705c0-.615-.123-1.165-.37-1.648a2.775 2.775 0 0 0-1.037-1.143c-.445-.279-.97-.419-1.576-.419-.668 0-1.246.166-1.733.497a3.271 3.271 0 0 0-1.115 1.278 3.75 3.75 0 0 0-.391 1.691v.966c0 .824.142 1.522.426 2.095a3.083 3.083 0 0 0 1.2 1.3c.512.293 1.106.44 1.783.44.44 0 .838-.062 1.193-.185.36-.128.67-.317.931-.568.26-.256.461-.573.603-.952l1.62.455a3.596 3.596 0 0 1-.86 1.449 4.18 4.18 0 0 1-1.491.966c-.592.227-1.257.341-1.996.341Zm11.811-11.137v1.421h-5.653v-1.421h5.653Zm-4.005-2.613h1.676v10.397c0 .474.068.829.206 1.066.142.232.322.388.539.468.223.076.457.114.704.114.184 0 .336-.009.454-.028l.284-.057.341 1.505a3.275 3.275 0 0 1-.476.128 3.456 3.456 0 0 1-.774.071 3.37 3.37 0 0 1-1.392-.305 2.77 2.77 0 0 1-1.122-.93c-.294-.417-.44-.943-.44-1.577v-10.852Zm13.401 9.062v-6.449h1.677v10.909h-1.677v-1.846h-.113a3.585 3.585 0 0 1-1.193 1.413c-.54.384-1.222.575-2.046.575-.682 0-1.288-.149-1.818-.447-.53-.303-.947-.758-1.25-1.364-.303-.611-.455-1.38-.455-2.308v-6.932h1.677v6.818c0 .796.222 1.43.667 1.904.45.473 1.023.71 1.719.71.417 0 .84-.106 1.271-.32.436-.213.8-.539 1.094-.98.298-.44.447-1.001.447-1.683Zm4.747 4.46v-10.909h1.619v1.648h.114c.198-.54.558-.978 1.079-1.314a3.179 3.179 0 0 1 1.761-.504c.124 0 .277.002.462.007s.324.012.419.021v1.705a4.891 4.891 0 0 0-.39-.064 3.867 3.867 0 0 0-.633-.05c-.53 0-1.003.111-1.42.334a2.517 2.517 0 0 0-.98.909 2.448 2.448 0 0 0-.355 1.314v6.903h-1.676Zm13.066 0v-10.909h1.619v1.705h.142a2.747 2.747 0 0 1 1.101-1.357c.507-.326 1.115-.49 1.825-.49.72 0 1.319.164 1.797.49.483.322.86.774 1.13 1.357h.113a3.188 3.188 0 0 1 1.257-1.343c.559-.336 1.229-.504 2.01-.504.976 0 1.774.306 2.394.916.62.606.93 1.551.93 2.834v7.301h-1.676v-7.301c0-.805-.22-1.38-.66-1.726-.441-.345-.959-.518-1.556-.518-.767 0-1.361.232-1.783.696-.421.459-.632 1.042-.632 1.747v7.102h-1.704v-7.471c0-.621-.201-1.12-.604-1.499-.402-.383-.921-.575-1.555-.575-.436 0-.843.116-1.222.348a2.628 2.628 0 0 0-.909.966c-.227.407-.341.878-.341 1.413v6.818h-1.676Zm20.593.256c-.691 0-1.319-.13-1.882-.391a3.222 3.222 0 0 1-1.342-1.143c-.332-.502-.498-1.108-.498-1.818 0-.625.124-1.132.37-1.52a2.6 2.6 0 0 1 .987-.923 5.17 5.17 0 0 1 1.364-.498 17.108 17.108 0 0 1 1.512-.27 65.775 65.775 0 0 1 1.613-.191c.416-.048.719-.126.909-.235.194-.109.291-.298.291-.568v-.057c0-.7-.192-1.245-.575-1.633-.379-.388-.954-.583-1.726-.583-.8 0-1.428.176-1.882.526-.455.35-.774.724-.959 1.122l-1.591-.568c.284-.663.663-1.179 1.136-1.548a4.269 4.269 0 0 1 1.563-.782 6.508 6.508 0 0 1 1.676-.227c.35 0 .753.043 1.207.128.46.081.902.249 1.328.504.431.256.789.642 1.073 1.158.284.516.426 1.207.426 2.074v7.187h-1.676v-1.477h-.085c-.114.237-.303.49-.569.76-.265.27-.617.5-1.058.689-.44.189-.977.284-1.612.284Zm.256-1.506c.663 0 1.221-.13 1.676-.39.459-.261.805-.597 1.037-1.009.237-.412.355-.845.355-1.3v-1.534c-.071.086-.227.164-.469.235a7.96 7.96 0 0 1-.824.177 34.261 34.261 0 0 1-1.605.213c-.435.057-.843.15-1.221.277-.374.123-.678.31-.91.561-.227.247-.34.583-.34 1.009 0 .582.215 1.023.646 1.321.435.294.987.44 1.655.44Zm12.377 1.478c-1.051 0-1.958-.232-2.72-.696-.758-.469-1.342-1.123-1.754-1.961-.407-.842-.611-1.823-.611-2.94s.204-2.102.611-2.955c.412-.857.985-1.524 1.719-2.002.738-.483 1.6-.725 2.585-.725.568 0 1.129.095 1.683.284.554.19 1.058.497 1.513.924.454.421.817.98 1.086 1.676.27.696.405 1.553.405 2.571v.71h-8.409v-1.449h6.705c0-.615-.123-1.165-.37-1.648a2.775 2.775 0 0 0-1.037-1.143c-.445-.279-.97-.419-1.576-.419-.668 0-1.246.166-1.733.497a3.271 3.271 0 0 0-1.115 1.278 3.75 3.75 0 0 0-.391 1.691v.966c0 .824.142 1.522.426 2.095a3.079 3.079 0 0 0 1.201 1.3c.511.293 1.105.44 1.782.44.441 0 .838-.062 1.193-.185.36-.128.67-.317.931-.568.26-.256.461-.573.603-.952l1.62.455a3.596 3.596 0 0 1-.86 1.449 4.18 4.18 0 0 1-1.491.966c-.592.227-1.257.341-1.996.341Zm11.499 0c-1.023 0-1.904-.242-2.642-.725-.739-.483-1.307-1.148-1.705-1.996-.398-.847-.596-1.815-.596-2.904 0-1.108.203-2.086.61-2.934.412-.852.985-1.517 1.719-1.995.739-.483 1.601-.725 2.585-.725.767 0 1.459.142 2.074.426a3.97 3.97 0 0 1 1.513 1.193c.393.512.637 1.108.732 1.79h-1.677c-.127-.497-.412-.937-.852-1.321-.435-.388-1.023-.582-1.761-.582-.654 0-1.227.17-1.719.511-.488.336-.869.812-1.143 1.428-.27.611-.405 1.328-.405 2.152 0 .843.132 1.576.397 2.201.27.625.649 1.111 1.137 1.456.492.346 1.07.519 1.733.519.435 0 .831-.076 1.186-.227.355-.152.656-.37.902-.654.246-.284.421-.625.525-1.023h1.677a3.896 3.896 0 0 1-.704 1.741 3.926 3.926 0 0 1-1.47 1.221c-.606.298-1.311.448-2.116.448Zm11.314 0c-1.051 0-1.958-.232-2.72-.696a4.675 4.675 0 0 1-1.755-1.961c-.407-.842-.611-1.823-.611-2.94s.204-2.102.611-2.955c.412-.857.985-1.524 1.719-2.002.739-.483 1.6-.725 2.585-.725.568 0 1.13.095 1.683.284.554.19 1.059.497 1.513.924.455.421.817.98 1.087 1.676s.405 1.553.405 2.571v.71h-8.409v-1.449h6.704c0-.615-.123-1.165-.369-1.648a2.782 2.782 0 0 0-1.037-1.143c-.445-.279-.971-.419-1.577-.419-.667 0-1.245.166-1.733.497a3.28 3.28 0 0 0-1.115 1.278 3.763 3.763 0 0 0-.39 1.691v.966c0 .824.142 1.522.426 2.095a3.083 3.083 0 0 0 1.2 1.3c.511.293 1.106.44 1.783.44.44 0 .838-.062 1.193-.185.36-.128.67-.317.93-.568.261-.256.462-.573.604-.952l1.619.455a3.594 3.594 0 0 1-.859 1.449c-.403.412-.9.734-1.492.966-.591.227-1.257.341-1.995.341Zm8.743-6.79v6.562h-1.677v-10.909h1.62v1.705h.142a3.115 3.115 0 0 1 1.165-1.335c.52-.341 1.193-.512 2.017-.512.738 0 1.385.152 1.939.455.554.298.984.753 1.292 1.363.308.606.462 1.373.462 2.301v6.932h-1.676v-6.818c0-.857-.223-1.524-.668-2.003-.445-.483-1.056-.724-1.832-.724-.535 0-1.014.116-1.435.348-.417.232-.746.57-.987 1.015-.242.446-.362.985-.362 1.62Zm13.233 6.818c-.691 0-1.319-.13-1.882-.391a3.23 3.23 0 0 1-1.343-1.143c-.331-.502-.497-1.108-.497-1.818 0-.625.123-1.132.37-1.52a2.6 2.6 0 0 1 .987-.923 5.175 5.175 0 0 1 1.363-.498 17.13 17.13 0 0 1 1.513-.27 66.371 66.371 0 0 1 1.612-.191c.417-.048.72-.126.91-.235.194-.109.291-.298.291-.568v-.057c0-.7-.192-1.245-.576-1.633-.378-.388-.954-.583-1.725-.583-.801 0-1.428.176-1.882.526-.455.35-.775.724-.959 1.122l-1.591-.568c.284-.663.663-1.179 1.136-1.548a4.261 4.261 0 0 1 1.563-.782 6.508 6.508 0 0 1 1.676-.227c.35 0 .753.043 1.207.128.459.081.902.249 1.328.504.431.256.789.642 1.073 1.158.284.516.426 1.207.426 2.074v7.187h-1.676v-1.477h-.085c-.114.237-.303.49-.569.76-.265.27-.618.5-1.058.689-.44.189-.978.284-1.612.284Zm.256-1.506c.662 0 1.221-.13 1.676-.39.459-.261.805-.597 1.037-1.009.236-.412.355-.845.355-1.3v-1.534c-.071.086-.227.164-.469.235a7.96 7.96 0 0 1-.824.177 34.867 34.867 0 0 1-1.605.213c-.436.057-.843.15-1.222.277-.374.123-.677.31-.909.561-.227.247-.341.583-.341 1.009 0 .582.216 1.023.647 1.321.435.294.987.44 1.655.44Zm15.53-7.216-1.505.427a2.83 2.83 0 0 0-.419-.732 2.045 2.045 0 0 0-.739-.597c-.312-.156-.712-.234-1.2-.234-.668 0-1.224.154-1.669.462-.441.303-.661.689-.661 1.157 0 .417.152.746.455.988.303.241.776.442 1.42.603l1.62.398c.975.237 1.702.599 2.18 1.087.478.483.717 1.105.717 1.868 0 .625-.18 1.183-.539 1.676-.356.492-.853.88-1.492 1.164-.639.285-1.382.427-2.23.427-1.113 0-2.034-.242-2.763-.725-.729-.483-1.191-1.188-1.385-2.116l1.591-.398c.152.587.438 1.027.86 1.321.426.294.982.44 1.669.44.781 0 1.401-.165 1.86-.497.464-.336.696-.738.696-1.207a1.27 1.27 0 0 0-.397-.952c-.265-.26-.673-.454-1.222-.582l-1.818-.426c-.999-.237-1.733-.604-2.202-1.101-.464-.502-.696-1.13-.696-1.882 0-.616.173-1.16.519-1.634.35-.473.826-.845 1.427-1.115.606-.27 1.293-.405 2.06-.405 1.079 0 1.927.237 2.542.71a3.826 3.826 0 0 1 1.321 1.875Zm16.071 0-1.5.427c-.1-.251-.24-.495-.42-.732-.18-.241-.43-.44-.74-.597-.31-.156-.71-.234-1.2-.234-.67 0-1.22.154-1.67.462-.44.303-.66.689-.66 1.157 0 .417.15.746.46.988.3.241.77.442 1.42.603l1.61.398c.98.237 1.71.599 2.19 1.087.47.483.71 1.105.71 1.868a2.77 2.77 0 0 1-.54 1.676c-.35.492-.85.88-1.49 1.164-.64.285-1.38.427-2.23.427-1.11 0-2.03-.242-2.76-.725s-1.19-1.188-1.39-2.116l1.59-.398c.16.587.44 1.027.86 1.321.43.294.99.44 1.67.44.78 0 1.4-.165 1.86-.497.47-.336.7-.738.7-1.207 0-.379-.13-.696-.4-.952-.26-.26-.67-.454-1.22-.582l-1.82-.426c-1-.237-1.73-.604-2.2-1.101-.46-.502-.7-1.13-.7-1.882 0-.616.18-1.16.52-1.634.35-.473.83-.845 1.43-1.115.61-.27 1.29-.405 2.06-.405 1.08 0 1.93.237 2.54.71a3.83 3.83 0 0 1 1.32 1.875Zm7.3 8.694c-1.05 0-1.96-.232-2.72-.696-.76-.469-1.34-1.123-1.75-1.961-.41-.842-.62-1.823-.62-2.94s.21-2.102.62-2.955c.41-.857.98-1.524 1.71-2.002.74-.483 1.6-.725 2.59-.725.57 0 1.13.095 1.68.284.56.19 1.06.497 1.52.924.45.421.81.98 1.08 1.676s.41 1.553.41 2.571v.71h-8.41v-1.449h6.7c0-.615-.12-1.165-.37-1.648a2.752 2.752 0 0 0-1.03-1.143c-.45-.279-.97-.419-1.58-.419-.67 0-1.25.166-1.73.497-.49.327-.86.753-1.12 1.278a3.763 3.763 0 0 0-.39 1.691v.966c0 .824.14 1.522.43 2.095.29.568.69 1.001 1.2 1.3.51.293 1.1.44 1.78.44.44 0 .84-.062 1.19-.185.36-.128.67-.317.93-.568.26-.256.46-.573.61-.952l1.62.455a3.619 3.619 0 0 1-.86 1.449c-.41.412-.9.734-1.49.966-.6.227-1.26.341-2 .341Zm11.19 0c-.91 0-1.72-.23-2.41-.689-.7-.464-1.24-1.118-1.64-1.961-.39-.847-.59-1.849-.59-3.004 0-1.146.2-2.14.59-2.983.4-.843.94-1.494 1.65-1.953.7-.459 1.51-.689 2.42-.689.71 0 1.28.119 1.69.355.41.232.73.497.95.796.22.293.39.535.52.724h.14v-5.369h1.68v14.545h-1.62v-1.676h-.2c-.13.199-.3.45-.53.753-.23.298-.55.566-.97.803-.42.232-.98.348-1.68.348Zm.22-1.506c.68 0 1.24-.175 1.71-.526.46-.355.81-.845 1.06-1.47.24-.63.36-1.356.36-2.18 0-.815-.12-1.527-.36-2.138-.23-.616-.58-1.094-1.05-1.435-.46-.345-1.04-.518-1.72-.518-.71 0-1.3.182-1.77.547-.47.36-.82.85-1.06 1.47-.23.615-.35 1.307-.35 2.074 0 .776.12 1.482.36 2.116.24.63.59 1.132 1.06 1.506.47.369 1.06.554 1.76.554Zm13.7 1.278v-10.909h1.62v1.705h.14c.23-.583.6-1.035 1.11-1.357.5-.326 1.11-.49 1.82-.49.72 0 1.32.164 1.8.49.48.322.86.774 1.13 1.357h.11c.28-.564.7-1.011 1.26-1.343.56-.336 1.23-.504 2.01-.504.97 0 1.77.306 2.39.916.62.606.93 1.551.93 2.834v7.301h-1.67v-7.301c0-.805-.22-1.38-.67-1.726-.44-.345-.95-.518-1.55-.518-.77 0-1.36.232-1.78.696-.42.459-.64 1.042-.64 1.747v7.102h-1.7v-7.471c0-.621-.2-1.12-.6-1.499-.41-.383-.92-.575-1.56-.575-.43 0-.84.116-1.22.348-.37.232-.68.554-.91.966-.23.407-.34.878-.34 1.413v6.818h-1.68Zm21.82.228c-.99 0-1.85-.235-2.59-.704-.74-.468-1.32-1.124-1.74-1.967-.41-.843-.62-1.828-.62-2.954 0-1.137.21-2.129.62-2.976.42-.848 1-1.506 1.74-1.975.74-.468 1.6-.703 2.59-.703.98 0 1.84.235 2.58.703.75.469 1.32 1.127 1.74 1.975.41.847.62 1.839.62 2.976 0 1.126-.21 2.111-.62 2.954-.42.843-.99 1.499-1.74 1.967-.74.469-1.6.704-2.58.704Zm0-1.506c.75 0 1.36-.192 1.84-.575.49-.384.84-.888 1.08-1.513.23-.625.34-1.302.34-2.031 0-.73-.11-1.409-.34-2.039-.24-.63-.59-1.138-1.08-1.527-.48-.388-1.09-.582-1.84-.582s-1.37.194-1.85.582c-.48.389-.84.897-1.07 1.527a5.9 5.9 0 0 0-.35 2.039c0 .729.12 1.406.35 2.031.23.625.59 1.129 1.07 1.513.48.383 1.1.575 1.85.575Zm9.18-13.267v14.545h-1.68v-14.545h1.68Zm7.64 14.773c-1.05 0-1.96-.232-2.72-.696-.76-.469-1.34-1.123-1.75-1.961-.41-.842-.62-1.823-.62-2.94s.21-2.102.62-2.955c.41-.857.98-1.524 1.71-2.002.74-.483 1.6-.725 2.59-.725.57 0 1.13.095 1.68.284.56.19 1.06.497 1.52.924.45.421.81.98 1.08 1.676s.41 1.553.41 2.571v.71h-8.41v-1.449h6.7c0-.615-.12-1.165-.37-1.648a2.752 2.752 0 0 0-1.03-1.143c-.45-.279-.97-.419-1.58-.419-.67 0-1.25.166-1.73.497-.49.327-.86.753-1.12 1.278a3.763 3.763 0 0 0-.39 1.691v.966c0 .824.14 1.522.43 2.095.29.568.69 1.001 1.2 1.3.51.293 1.1.44 1.78.44.44 0 .84-.062 1.19-.185.36-.128.67-.317.93-.568.26-.256.46-.573.61-.952l1.62.455a3.619 3.619 0 0 1-.86 1.449c-.41.412-.9.734-1.49.966-.6.227-1.26.341-2 .341Zm14.79-8.694-1.5.427c-.1-.251-.24-.495-.42-.732-.18-.241-.43-.44-.74-.597-.31-.156-.71-.234-1.2-.234-.67 0-1.22.154-1.67.462-.44.303-.66.689-.66 1.157 0 .417.15.746.45.988.31.241.78.442 1.43.603l1.61.398c.98.237 1.71.599 2.19 1.087.47.483.71 1.105.71 1.868a2.77 2.77 0 0 1-.54 1.676c-.35.492-.85.88-1.49 1.164-.64.285-1.38.427-2.23.427-1.11 0-2.03-.242-2.76-.725s-1.19-1.188-1.39-2.116l1.59-.398c.16.587.44 1.027.86 1.321.43.294.99.44 1.67.44.78 0 1.4-.165 1.86-.497.47-.336.7-.738.7-1.207 0-.379-.13-.696-.4-.952-.26-.26-.67-.454-1.22-.582l-1.82-.426c-1-.237-1.73-.604-2.2-1.101-.46-.502-.7-1.13-.7-1.882 0-.616.18-1.16.52-1.634.35-.473.83-.845 1.43-1.115.61-.27 1.29-.405 2.06-.405 1.08 0 1.93.237 2.54.71a3.83 3.83 0 0 1 1.32 1.875Zm7.47-2.443v1.421h-5.65v-1.421h5.65Zm-4.01-2.613h1.68v10.397c0 .474.07.829.21 1.066.14.232.32.388.54.468.22.076.45.114.7.114.18 0 .34-.009.45-.028l.29-.057.34 1.505c-.11.043-.27.086-.48.128-.2.048-.46.071-.77.071-.47 0-.94-.101-1.39-.305a2.805 2.805 0 0 1-1.13-.93c-.29-.417-.44-.943-.44-1.577v-10.852Zm6.53 13.522v-10.909h1.68v10.909h-1.68Zm.85-12.727c-.32 0-.61-.111-.84-.334a1.08 1.08 0 0 1-.35-.802c0-.313.12-.58.35-.803.23-.222.52-.334.84-.334.33 0 .61.112.84.334.24.223.36.49.36.803 0 .312-.12.58-.36.802-.23.223-.51.334-.84.334Zm8.47 12.955c-1.05 0-1.96-.232-2.72-.696-.76-.469-1.34-1.123-1.75-1.961-.41-.842-.61-1.823-.61-2.94s.2-2.102.61-2.955c.41-.857.98-1.524 1.72-2.002.73-.483 1.6-.725 2.58-.725.57 0 1.13.095 1.68.284.56.19 1.06.497 1.52.924.45.421.81.98 1.08 1.676s.41 1.553.41 2.571v.71h-8.41v-1.449h6.7c0-.615-.12-1.165-.37-1.648a2.752 2.752 0 0 0-1.03-1.143c-.45-.279-.97-.419-1.58-.419-.67 0-1.24.166-1.73.497-.49.327-.86.753-1.12 1.278a3.763 3.763 0 0 0-.39 1.691v.966c0 .824.14 1.522.43 2.095.29.568.69 1.001 1.2 1.3.51.293 1.1.44 1.78.44.44 0 .84-.062 1.19-.185.36-.128.67-.317.93-.568.27-.256.47-.573.61-.952l1.62.455a3.619 3.619 0 0 1-.86 1.449c-.4.412-.9.734-1.49.966-.6.227-1.26.341-2 .341Zm12.69-.228v-10.909h1.62v1.705h.14c.23-.583.6-1.035 1.11-1.357.5-.326 1.11-.49 1.82-.49.72 0 1.32.164 1.8.49.48.322.86.774 1.13 1.357h.11c.28-.564.7-1.011 1.26-1.343.56-.336 1.23-.504 2.01-.504.97 0 1.77.306 2.39.916.62.606.93 1.551.93 2.834v7.301h-1.68v-7.301c0-.805-.22-1.38-.66-1.726-.44-.345-.95-.518-1.55-.518-.77 0-1.36.232-1.78.696-.43.459-.64 1.042-.64 1.747v7.102h-1.7v-7.471c0-.621-.2-1.12-.6-1.499-.41-.383-.92-.575-1.56-.575-.44 0-.84.116-1.22.348-.38.232-.68.554-.91.966-.23.407-.34.878-.34 1.413v6.818h-1.68Zm20.6.256c-.7 0-1.32-.13-1.89-.391a3.235 3.235 0 0 1-1.34-1.143c-.33-.502-.5-1.108-.5-1.818 0-.625.13-1.132.37-1.52.25-.393.58-.701.99-.923a5.22 5.22 0 0 1 1.36-.498c.51-.113 1.01-.203 1.52-.27.66-.085 1.2-.149 1.61-.191.42-.048.72-.126.91-.235.19-.109.29-.298.29-.568v-.057c0-.7-.19-1.245-.58-1.633-.37-.388-.95-.583-1.72-.583-.8 0-1.43.176-1.88.526-.46.35-.78.724-.96 1.122l-1.59-.568c.28-.663.66-1.179 1.13-1.548.48-.374 1-.635 1.57-.782a6.412 6.412 0 0 1 1.67-.227c.35 0 .75.043 1.21.128.46.081.9.249 1.33.504.43.256.79.642 1.07 1.158.28.516.43 1.207.43 2.074v7.187h-1.68v-1.477h-.09c-.11.237-.3.49-.56.76-.27.27-.62.5-1.06.689-.44.189-.98.284-1.61.284Zm.25-1.506c.66 0 1.22-.13 1.68-.39.46-.261.8-.597 1.03-1.009.24-.412.36-.845.36-1.3v-1.534c-.07.086-.23.164-.47.235-.24.066-.51.125-.82.177-.31.048-.61.09-.9.128-.29.033-.53.062-.71.085-.43.057-.84.15-1.22.277-.37.123-.68.31-.91.561-.23.247-.34.583-.34 1.009 0 .582.22 1.023.65 1.321.43.294.98.44 1.65.44Zm9.48-13.295v14.545h-1.67v-14.545h1.67Zm7.65 14.773c-1.06 0-1.96-.232-2.73-.696a4.704 4.704 0 0 1-1.75-1.961c-.41-.842-.61-1.823-.61-2.94s.2-2.102.61-2.955c.41-.857.99-1.524 1.72-2.002.74-.483 1.6-.725 2.58-.725.57 0 1.13.095 1.69.284.55.19 1.06.497 1.51.924.46.421.82.98 1.09 1.676.27.696.4 1.553.4 2.571v.71h-8.41v-1.449h6.71a3.66 3.66 0 0 0-.37-1.648 2.775 2.775 0 0 0-1.04-1.143c-.44-.279-.97-.419-1.58-.419-.66 0-1.24.166-1.73.497-.48.327-.85.753-1.11 1.278a3.763 3.763 0 0 0-.39 1.691v.966c0 .824.14 1.522.42 2.095.29.568.69 1.001 1.2 1.3.51.293 1.11.44 1.79.44.44 0 .83-.062 1.19-.185.36-.128.67-.317.93-.568.26-.256.46-.573.6-.952l1.62.455a3.619 3.619 0 0 1-.86 1.449c-.4.412-.9.734-1.49.966-.59.227-1.26.341-1.99.341Zm14.79-8.694-1.51.427a2.548 2.548 0 0 0-.42-.732c-.18-.241-.42-.44-.73-.597-.32-.156-.72-.234-1.2-.234-.67 0-1.23.154-1.67.462-.44.303-.66.689-.66 1.157 0 .417.15.746.45.988.3.241.78.442 1.42.603l1.62.398c.98.237 1.7.599 2.18 1.087.48.483.72 1.105.72 1.868a2.77 2.77 0 0 1-.54 1.676c-.36.492-.85.88-1.49 1.164-.64.285-1.39.427-2.23.427-1.12 0-2.04-.242-2.77-.725s-1.19-1.188-1.38-2.116l1.59-.398c.15.587.44 1.027.86 1.321.43.294.98.44 1.67.44.78 0 1.4-.165 1.86-.497.46-.336.7-.738.7-1.207 0-.379-.14-.696-.4-.952-.27-.26-.67-.454-1.22-.582l-1.82-.426c-1-.237-1.74-.604-2.2-1.101-.47-.502-.7-1.13-.7-1.882 0-.616.17-1.16.52-1.634.35-.473.82-.845 1.43-1.115.6-.27 1.29-.405 2.06-.405 1.08 0 1.92.237 2.54.71a3.83 3.83 0 0 1 1.32 1.875Zm9.6 4.006v-6.449h1.67v10.909h-1.67v-1.846h-.12c-.25.554-.65 1.025-1.19 1.413-.54.384-1.22.575-2.05.575-.68 0-1.28-.149-1.81-.447-.53-.303-.95-.758-1.25-1.364-.31-.611-.46-1.38-.46-2.308v-6.932h1.68v6.818c0 .796.22 1.43.66 1.904.45.473 1.03.71 1.72.71.42 0 .84-.106 1.27-.32.44-.213.81-.539 1.1-.98.3-.44.45-1.001.45-1.683Zm7.95 4.716c-.69 0-1.32-.13-1.88-.391a3.235 3.235 0 0 1-1.34-1.143c-.33-.502-.5-1.108-.5-1.818 0-.625.12-1.132.37-1.52.25-.393.58-.701.99-.923a5.09 5.09 0 0 1 1.36-.498c.5-.113 1.01-.203 1.51-.27.67-.085 1.2-.149 1.62-.191.41-.048.72-.126.91-.235.19-.109.29-.298.29-.568v-.057c0-.7-.2-1.245-.58-1.633-.38-.388-.95-.583-1.72-.583-.81 0-1.43.176-1.89.526-.45.35-.77.724-.96 1.122l-1.59-.568c.29-.663.67-1.179 1.14-1.548.48-.374 1-.635 1.56-.782a6.544 6.544 0 0 1 1.68-.227c.35 0 .75.043 1.21.128.46.081.9.249 1.32.504.43.256.79.642 1.08 1.158.28.516.42 1.207.42 2.074v7.187h-1.67v-1.477h-.09c-.11.237-.3.49-.57.76-.26.27-.61.5-1.06.689-.44.189-.97.284-1.61.284Zm.26-1.506c.66 0 1.22-.13 1.67-.39.46-.261.81-.597 1.04-1.009.24-.412.36-.845.36-1.3v-1.534c-.07.086-.23.164-.47.235-.24.066-.51.125-.83.177-.3.048-.6.09-.9.128-.29.033-.52.062-.7.085-.44.057-.84.15-1.22.277-.38.123-.68.31-.91.561-.23.247-.34.583-.34 1.009 0 .582.21 1.023.64 1.321.44.294.99.44 1.66.44Zm11.92 1.478c-.91 0-1.71-.23-2.41-.689-.69-.464-1.24-1.118-1.63-1.961-.39-.847-.59-1.849-.59-3.004 0-1.146.2-2.14.59-2.983.39-.843.94-1.494 1.64-1.953.7-.459 1.51-.689 2.43-.689.71 0 1.27.119 1.68.355.42.232.74.497.95.796.23.293.4.535.52.724h.14v-5.369h1.68v14.545h-1.62v-1.676h-.2c-.12.199-.3.45-.52.753-.23.298-.55.566-.98.803-.42.232-.98.348-1.68.348Zm.23-1.506c.67 0 1.24-.175 1.7-.526.47-.355.82-.845 1.06-1.47.24-.63.36-1.356.36-2.18 0-.815-.12-1.527-.35-2.138-.24-.616-.59-1.094-1.05-1.435-.47-.345-1.04-.518-1.72-.518-.71 0-1.3.182-1.78.547-.47.36-.82.85-1.06 1.47-.23.615-.34 1.307-.34 2.074 0 .776.11 1.482.35 2.116.24.63.6 1.132 1.07 1.506.47.369 1.06.554 1.76.554Zm11.28 1.534c-.69 0-1.31-.13-1.88-.391a3.235 3.235 0 0 1-1.34-1.143c-.33-.502-.5-1.108-.5-1.818 0-.625.13-1.132.37-1.52.25-.393.58-.701.99-.923a5.22 5.22 0 0 1 1.36-.498c.5-.113 1.01-.203 1.52-.27.66-.085 1.2-.149 1.61-.191.41-.048.72-.126.91-.235.19-.109.29-.298.29-.568v-.057c0-.7-.19-1.245-.58-1.633-.38-.388-.95-.583-1.72-.583-.8 0-1.43.176-1.89.526-.45.35-.77.724-.95 1.122l-1.6-.568c.29-.663.67-1.179 1.14-1.548.48-.374 1-.635 1.56-.782a6.544 6.544 0 0 1 1.68-.227c.35 0 .75.043 1.21.128.46.081.9.249 1.33.504.43.256.78.642 1.07 1.158.28.516.42 1.207.42 2.074v7.187h-1.67v-1.477h-.09c-.11.237-.3.49-.57.76-.26.27-.61.5-1.05.689-.44.189-.98.284-1.62.284Zm.26-1.506c.66 0 1.22-.13 1.68-.39.45-.261.8-.597 1.03-1.009.24-.412.36-.845.36-1.3v-1.534c-.07.086-.23.164-.47.235-.24.066-.51.125-.82.177-.31.048-.61.09-.91.128-.29.033-.52.062-.7.085-.44.057-.84.15-1.22.277-.38.123-.68.31-.91.561-.23.247-.34.583-.34 1.009 0 .582.21 1.023.64 1.321.44.294.99.44 1.66.44Zm9.02 1.364c-.35 0-.65-.126-.9-.376a1.229 1.229 0 0 1-.37-.902c0-.351.12-.652.37-.902.25-.251.55-.377.9-.377.36 0 .66.126.91.377.25.25.37.551.37.902 0 .232-.06.445-.17.639-.12.194-.27.35-.47.468-.19.114-.4.171-.64.171Zm-680.019 17.341v14.545h-1.762v-14.545h1.762Zm3.304 18.636v-15h1.619v1.733h.199c.123-.189.294-.431.512-.724.222-.299.539-.564.951-.796.417-.236.98-.355 1.691-.355.918 0 1.728.23 2.429.689.7.459 1.247 1.11 1.64 1.953.393.843.59 1.837.59 2.983 0 1.155-.197 2.157-.59 3.004-.393.843-.937 1.497-1.633 1.961-.696.459-1.499.689-2.408.689-.701 0-1.262-.116-1.683-.348-.422-.237-.746-.505-.973-.803a10.794 10.794 0 0 1-.526-.753h-.142v5.767h-1.676Zm1.648-9.545c0 .824.121 1.55.362 2.18.242.625.594 1.115 1.058 1.47.464.351 1.032.526 1.705.526.701 0 1.285-.185 1.754-.554.474-.374.829-.876 1.065-1.506.242-.634.363-1.34.363-2.116 0-.767-.119-1.459-.355-2.074-.232-.62-.585-1.11-1.059-1.47-.468-.365-1.058-.547-1.768-.547-.682 0-1.255.173-1.719.518-.464.341-.814.819-1.051 1.435-.237.611-.355 1.323-.355 2.138Zm18.267-3.012-1.506.427a2.773 2.773 0 0 0-.419-.732 2.05 2.05 0 0 0-.738-.597c-.313-.156-.713-.234-1.201-.234-.667 0-1.224.154-1.669.462-.44.303-.66.689-.66 1.157 0 .417.151.746.454.988.303.241.777.442 1.421.603l1.619.398c.975.237 1.702.599 2.18 1.087.479.483.718 1.105.718 1.868a2.77 2.77 0 0 1-.54 1.676c-.355.492-.852.88-1.492 1.164-.639.285-1.382.427-2.23.427-1.112 0-2.033-.242-2.762-.725-.73-.483-1.191-1.188-1.385-2.116l1.591-.398c.151.587.438 1.027.859 1.321.426.294.982.44 1.669.44.781 0 1.401-.165 1.861-.497.464-.336.696-.738.696-1.207a1.27 1.27 0 0 0-.398-.952c-.265-.26-.672-.454-1.222-.582l-1.818-.426c-.999-.237-1.733-.604-2.201-1.101-.464-.502-.696-1.13-.696-1.882 0-.616.172-1.16.518-1.634.35-.473.826-.845 1.428-1.115.606-.27 1.292-.405 2.059-.405 1.08 0 1.927.237 2.543.71a3.839 3.839 0 0 1 1.321 1.875Zm9.597 4.006v-6.449h1.676v10.909h-1.676v-1.846h-.114c-.255.554-.653 1.025-1.193 1.413-.54.384-1.222.575-2.045.575-.682 0-1.288-.149-1.819-.447-.53-.303-.947-.758-1.25-1.364-.303-.611-.454-1.38-.454-2.308v-6.932h1.676v6.818c0 .796.222 1.43.668 1.904.449.473 1.022.71 1.718.71.417 0 .841-.106 1.272-.32.435-.213.8-.539 1.093-.98.299-.44.448-1.001.448-1.683Zm4.746 4.46v-10.909h1.619v1.705h.142a2.747 2.747 0 0 1 1.101-1.357c.507-.326 1.115-.49 1.825-.49.72 0 1.319.164 1.797.49.483.322.86.774 1.13 1.357h.113a3.188 3.188 0 0 1 1.257-1.343c.559-.336 1.229-.504 2.01-.504.976 0 1.773.306 2.394.916.62.606.93 1.551.93 2.834v7.301h-1.676v-7.301c0-.805-.22-1.38-.661-1.726-.44-.345-.958-.518-1.555-.518-.767 0-1.361.232-1.783.696-.421.459-.632 1.042-.632 1.747v7.102h-1.704v-7.471c0-.621-.201-1.12-.604-1.499-.402-.383-.921-.575-1.555-.575-.436 0-.843.116-1.222.348a2.628 2.628 0 0 0-.909.966c-.227.407-.341.878-.341 1.413v6.818h-1.676Zm30.735-8.466-1.506.427a2.773 2.773 0 0 0-.419-.732 2.05 2.05 0 0 0-.738-.597c-.313-.156-.713-.234-1.201-.234-.667 0-1.224.154-1.669.462-.44.303-.66.689-.66 1.157 0 .417.151.746.454.988.303.241.777.442 1.421.603l1.619.398c.976.237 1.702.599 2.181 1.087.478.483.717 1.105.717 1.868a2.77 2.77 0 0 1-.54 1.676c-.355.492-.852.88-1.491 1.164-.64.285-1.383.427-2.23.427-1.113 0-2.034-.242-2.763-.725-.729-.483-1.191-1.188-1.385-2.116l1.591-.398c.151.587.438 1.027.859 1.321.426.294.983.44 1.669.44.781 0 1.402-.165 1.861-.497.464-.336.696-.738.696-1.207a1.27 1.27 0 0 0-.398-.952c-.265-.26-.672-.454-1.221-.582l-1.819-.426c-.999-.237-1.733-.604-2.201-1.101-.464-.502-.696-1.13-.696-1.882 0-.616.173-1.16.518-1.634.351-.473.826-.845 1.428-1.115.606-.27 1.292-.405 2.059-.405 1.08 0 1.927.237 2.543.71a3.832 3.832 0 0 1 1.321 1.875Zm7.296 8.694c-1.051 0-1.958-.232-2.72-.696a4.675 4.675 0 0 1-1.755-1.961c-.407-.842-.61-1.823-.61-2.94s.203-2.102.61-2.955c.412-.857.985-1.524 1.719-2.002.739-.483 1.601-.725 2.585-.725.569 0 1.13.095 1.684.284.554.19 1.058.497 1.512.924.455.421.817.98 1.087 1.676s.405 1.553.405 2.571v.71h-8.409v-1.449h6.704c0-.615-.123-1.165-.369-1.648a2.775 2.775 0 0 0-1.037-1.143c-.445-.279-.971-.419-1.577-.419-.667 0-1.245.166-1.733.497a3.28 3.28 0 0 0-1.115 1.278 3.763 3.763 0 0 0-.39 1.691v.966c0 .824.142 1.522.426 2.095a3.083 3.083 0 0 0 1.2 1.3c.512.293 1.106.44 1.783.44.44 0 .838-.062 1.193-.185.36-.128.67-.317.93-.568.261-.256.462-.573.604-.952l1.619.455a3.594 3.594 0 0 1-.859 1.449 4.19 4.19 0 0 1-1.491.966c-.592.227-1.258.341-1.996.341Zm11.186 0c-.909 0-1.712-.23-2.408-.689-.696-.464-1.24-1.118-1.633-1.961-.393-.847-.59-1.849-.59-3.004 0-1.146.197-2.14.59-2.983.393-.843.94-1.494 1.64-1.953.701-.459 1.511-.689 2.429-.689.711 0 1.272.119 1.684.355.416.232.733.497.951.796.223.293.396.535.519.724h.142v-5.369h1.676v14.545h-1.619v-1.676h-.199c-.123.199-.299.45-.526.753-.227.298-.551.566-.973.803-.421.232-.982.348-1.683.348Zm.227-1.506c.673 0 1.241-.175 1.705-.526.464-.355.816-.845 1.058-1.47.241-.63.362-1.356.362-2.18 0-.815-.118-1.527-.355-2.138-.237-.616-.587-1.094-1.051-1.435-.464-.345-1.037-.518-1.719-.518-.71 0-1.302.182-1.775.547-.469.36-.822.85-1.059 1.47-.232.615-.348 1.307-.348 2.074 0 .776.119 1.482.355 2.116.242.63.597 1.132 1.066 1.506.473.369 1.06.554 1.761.554Zm21.428-7.188-1.506.427a2.801 2.801 0 0 0-.419-.732 2.045 2.045 0 0 0-.739-.597c-.312-.156-.712-.234-1.2-.234-.668 0-1.224.154-1.669.462-.44.303-.66.689-.66 1.157 0 .417.151.746.454.988.303.241.777.442 1.421.603l1.619.398c.975.237 1.702.599 2.18 1.087.478.483.718 1.105.718 1.868a2.77 2.77 0 0 1-.54 1.676c-.355.492-.852.88-1.492 1.164-.639.285-1.382.427-2.23.427-1.112 0-2.033-.242-2.763-.725-.729-.483-1.19-1.188-1.385-2.116l1.591-.398c.152.587.438 1.027.86 1.321.426.294.982.44 1.669.44.781 0 1.401-.165 1.861-.497.464-.336.696-.738.696-1.207a1.27 1.27 0 0 0-.398-.952c-.265-.26-.672-.454-1.222-.582l-1.818-.426c-.999-.237-1.733-.604-2.202-1.101-.464-.502-.696-1.13-.696-1.882 0-.616.173-1.16.519-1.634.35-.473.826-.845 1.427-1.115.606-.27 1.293-.405 2.06-.405 1.08 0 1.927.237 2.543.71a3.839 3.839 0 0 1 1.321 1.875Zm7.153 8.694c-.984 0-1.848-.235-2.592-.704-.738-.468-1.316-1.124-1.733-1.967-.412-.843-.618-1.828-.618-2.954 0-1.137.206-2.129.618-2.976.417-.848.995-1.506 1.733-1.975.744-.468 1.608-.703 2.592-.703.985 0 1.847.235 2.586.703.743.469 1.321 1.127 1.733 1.975.416.847.625 1.839.625 2.976 0 1.126-.209 2.111-.625 2.954-.412.843-.99 1.499-1.733 1.967-.739.469-1.601.704-2.586.704Zm0-1.506c.749 0 1.364-.192 1.847-.575a3.395 3.395 0 0 0 1.073-1.513 5.791 5.791 0 0 0 .348-2.031c0-.73-.116-1.409-.348-2.039a3.439 3.439 0 0 0-1.073-1.527c-.483-.388-1.098-.582-1.847-.582-.748 0-1.363.194-1.846.582a3.439 3.439 0 0 0-1.073 1.527 5.852 5.852 0 0 0-.348 2.039c0 .729.116 1.406.348 2.031.232.625.59 1.129 1.073 1.513.483.383 1.098.575 1.846.575Zm11.622 1.506c-.91 0-1.712-.23-2.408-.689-.696-.464-1.241-1.118-1.634-1.961-.393-.847-.589-1.849-.589-3.004 0-1.146.196-2.14.589-2.983.393-.843.94-1.494 1.641-1.953.701-.459 1.51-.689 2.429-.689.71 0 1.271.119 1.683.355.417.232.734.497.952.796.222.293.395.535.518.724h.142v-5.369h1.677v14.545h-1.62v-1.676h-.199c-.123.199-.298.45-.525.753-.227.298-.552.566-.973.803-.422.232-.983.348-1.683.348Zm.227-1.506c.672 0 1.24-.175 1.704-.526.464-.355.817-.845 1.059-1.47.241-.63.362-1.356.362-2.18 0-.815-.119-1.527-.355-2.138-.237-.616-.587-1.094-1.051-1.435-.464-.345-1.037-.518-1.719-.518-.71 0-1.302.182-1.776.547-.468.36-.821.85-1.058 1.47-.232.615-.348 1.307-.348 2.074 0 .776.118 1.482.355 2.116.242.63.597 1.132 1.065 1.506.474.369 1.061.554 1.762.554Zm11.285 1.534c-.691 0-1.318-.13-1.882-.391a3.228 3.228 0 0 1-1.342-1.143c-.332-.502-.497-1.108-.497-1.818 0-.625.123-1.132.369-1.52a2.6 2.6 0 0 1 .987-.923 5.182 5.182 0 0 1 1.364-.498 17.065 17.065 0 0 1 1.513-.27c.663-.085 1.2-.149 1.612-.191.417-.048.72-.126.909-.235.194-.109.291-.298.291-.568v-.057c0-.7-.192-1.245-.575-1.633-.379-.388-.954-.583-1.726-.583-.8 0-1.427.176-1.882.526-.455.35-.774.724-.959 1.122l-1.591-.568c.284-.663.663-1.179 1.137-1.548a4.265 4.265 0 0 1 1.562-.782 6.508 6.508 0 0 1 1.676-.227c.351 0 .753.043 1.208.128.459.081.902.249 1.328.504.431.256.788.642 1.072 1.158.284.516.426 1.207.426 2.074v7.187h-1.676v-1.477h-.085c-.114.237-.303.49-.568.76-.265.27-.618.5-1.058.689-.441.189-.978.284-1.613.284Zm.256-1.506c.663 0 1.222-.13 1.676-.39.459-.261.805-.597 1.037-1.009.237-.412.355-.845.355-1.3v-1.534c-.071.086-.227.164-.469.235a7.936 7.936 0 0 1-.823.177 35.495 35.495 0 0 1-1.605.213c-.436.057-.843.15-1.222.277-.374.123-.677.31-.909.561-.227.247-.341.583-.341 1.009 0 .582.215 1.023.646 1.321.436.294.987.44 1.655.44Zm9.48-13.295v14.545h-1.676v-14.545h1.676Zm7.644 14.773c-1.052 0-1.958-.232-2.721-.696a4.68 4.68 0 0 1-1.754-1.961c-.407-.842-.611-1.823-.611-2.94s.204-2.102.611-2.955c.412-.857.985-1.524 1.719-2.002.739-.483 1.6-.725 2.585-.725.568 0 1.129.095 1.683.284.554.19 1.059.497 1.513.924.455.421.817.98 1.087 1.676s.405 1.553.405 2.571v.71h-8.409v-1.449h6.704c0-.615-.123-1.165-.369-1.648a2.782 2.782 0 0 0-1.037-1.143c-.445-.279-.971-.419-1.577-.419-.667 0-1.245.166-1.733.497a3.28 3.28 0 0 0-1.115 1.278 3.763 3.763 0 0 0-.39 1.691v.966c0 .824.142 1.522.426 2.095a3.076 3.076 0 0 0 1.2 1.3c.511.293 1.106.44 1.783.44.44 0 .838-.062 1.193-.185.36-.128.67-.317.93-.568.261-.256.462-.573.604-.952l1.619.455a3.594 3.594 0 0 1-.859 1.449c-.403.412-.9.734-1.492.966-.591.227-1.257.341-1.995.341Zm14.794-8.694-1.506.427a2.801 2.801 0 0 0-.419-.732 2.045 2.045 0 0 0-.739-.597c-.312-.156-.712-.234-1.2-.234-.668 0-1.224.154-1.669.462-.44.303-.661.689-.661 1.157 0 .417.152.746.455.988.303.241.777.442 1.42.603l1.62.398c.975.237 1.702.599 2.18 1.087.478.483.718 1.105.718 1.868a2.77 2.77 0 0 1-.54 1.676c-.355.492-.853.88-1.492 1.164-.639.285-1.382.427-2.23.427-1.113 0-2.033-.242-2.763-.725-.729-.483-1.19-1.188-1.385-2.116l1.591-.398c.152.587.438 1.027.86 1.321.426.294.982.44 1.669.44.781 0 1.401-.165 1.861-.497.464-.336.696-.738.696-1.207a1.27 1.27 0 0 0-.398-.952c-.265-.26-.673-.454-1.222-.582l-1.818-.426c-.999-.237-1.733-.604-2.202-1.101-.464-.502-.696-1.13-.696-1.882 0-.616.173-1.16.519-1.634.35-.473.826-.845 1.427-1.115.606-.27 1.293-.405 2.06-.405 1.08 0 1.927.237 2.543.71a3.839 3.839 0 0 1 1.321 1.875Zm8.347 8.466v-10.909h1.619v1.648h.114c.198-.54.558-.978 1.079-1.314a3.179 3.179 0 0 1 1.761-.504c.124 0 .277.002.462.007s.324.012.419.021v1.705a4.891 4.891 0 0 0-.39-.064 3.867 3.867 0 0 0-.633-.05c-.53 0-1.003.111-1.42.334a2.517 2.517 0 0 0-.98.909 2.448 2.448 0 0 0-.355 1.314v6.903h-1.676Zm7.441 0v-10.909h1.676v10.909h-1.676Zm.852-12.727c-.326 0-.608-.111-.845-.334a1.071 1.071 0 0 1-.348-.802c0-.313.116-.58.348-.803.237-.222.519-.334.845-.334.327 0 .606.112.838.334.237.223.355.49.355.803 0 .312-.118.58-.355.802a1.165 1.165 0 0 1-.838.334Zm11.621 4.261-1.505.427a2.83 2.83 0 0 0-.419-.732 2.045 2.045 0 0 0-.739-.597c-.312-.156-.713-.234-1.2-.234-.668 0-1.224.154-1.669.462-.441.303-.661.689-.661 1.157 0 .417.152.746.455.988.303.241.776.442 1.42.603l1.62.398c.975.237 1.702.599 2.18 1.087.478.483.717 1.105.717 1.868a2.77 2.77 0 0 1-.54 1.676c-.355.492-.852.88-1.491 1.164-.639.285-1.383.427-2.23.427-1.113 0-2.034-.242-2.763-.725-.729-.483-1.191-1.188-1.385-2.116l1.591-.398c.152.587.438 1.027.859 1.321.427.294.983.44 1.669.44.782 0 1.402-.165 1.861-.497.464-.336.696-.738.696-1.207a1.27 1.27 0 0 0-.397-.952c-.266-.26-.673-.454-1.222-.582l-1.818-.426c-.999-.237-1.733-.604-2.202-1.101-.464-.502-.696-1.13-.696-1.882 0-.616.173-1.16.519-1.634.35-.473.826-.845 1.427-1.115.606-.27 1.293-.405 2.06-.405 1.079 0 1.927.237 2.542.71a3.826 3.826 0 0 1 1.321 1.875Zm9.597 4.006v-6.449h1.676v10.909h-1.676v-1.846h-.113a3.585 3.585 0 0 1-1.193 1.413c-.54.384-1.222.575-2.046.575-.682 0-1.288-.149-1.818-.447-.53-.303-.947-.758-1.25-1.364-.303-.611-.455-1.38-.455-2.308v-6.932h1.676v6.818c0 .796.223 1.43.668 1.904.45.473 1.023.71 1.719.71.416 0 .84-.106 1.271-.32.436-.213.8-.539 1.094-.98.298-.44.447-1.001.447-1.683Zm12.474-4.006-1.506.427a2.801 2.801 0 0 0-.419-.732 2.045 2.045 0 0 0-.739-.597c-.312-.156-.712-.234-1.2-.234-.668 0-1.224.154-1.669.462-.44.303-.66.689-.66 1.157 0 .417.151.746.454.988.303.241.777.442 1.421.603l1.619.398c.975.237 1.702.599 2.18 1.087.478.483.718 1.105.718 1.868a2.77 2.77 0 0 1-.54 1.676c-.355.492-.852.88-1.492 1.164-.639.285-1.382.427-2.23.427-1.112 0-2.033-.242-2.763-.725-.729-.483-1.19-1.188-1.385-2.116l1.591-.398c.152.587.438 1.027.86 1.321.426.294.982.44 1.669.44.781 0 1.401-.165 1.861-.497.464-.336.696-.738.696-1.207a1.27 1.27 0 0 0-.398-.952c-.265-.26-.672-.454-1.222-.582l-1.818-.426c-.999-.237-1.733-.604-2.202-1.101-.464-.502-.696-1.13-.696-1.882 0-.616.173-1.16.519-1.634.35-.473.826-.845 1.427-1.115.606-.27 1.293-.405 2.06-.405 1.08 0 1.927.237 2.543.71a3.839 3.839 0 0 1 1.321 1.875Zm15.222 4.006v-6.449h1.676v10.909h-1.676v-1.846h-.114a3.576 3.576 0 0 1-1.193 1.413c-.54.384-1.222.575-2.046.575-.681 0-1.288-.149-1.818-.447-.53-.303-.947-.758-1.25-1.364-.303-.611-.454-1.38-.454-2.308v-6.932h1.676v6.818c0 .796.222 1.43.667 1.904.45.473 1.023.71 1.719.71.417 0 .841-.106 1.271-.32a2.76 2.76 0 0 0 1.094-.98c.298-.44.448-1.001.448-1.683Zm9.49-6.449v1.421h-5.653v-1.421h5.653Zm-4.006-2.613h1.677v10.397c0 .474.068.829.205 1.066.143.232.322.388.54.468.223.076.457.114.703.114.185 0 .337-.009.455-.028l.284-.057.341 1.505a3.275 3.275 0 0 1-.476.128 3.469 3.469 0 0 1-.774.071c-.474 0-.938-.101-1.392-.305a2.77 2.77 0 0 1-1.122-.93c-.294-.417-.441-.943-.441-1.577v-10.852Zm12.152 17.613v-15h1.62v1.733h.199c.123-.189.293-.431.511-.724.222-.299.54-.564.952-.796.416-.236.98-.355 1.69-.355.919 0 1.728.23 2.429.689.701.459 1.248 1.11 1.641 1.953s.589 1.837.589 2.983c0 1.155-.196 2.157-.589 3.004-.393.843-.938 1.497-1.634 1.961-.696.459-1.499.689-2.408.689-.7 0-1.261-.116-1.683-.348-.421-.237-.746-.505-.973-.803a10.726 10.726 0 0 1-.525-.753h-.143v5.767h-1.676Zm1.648-9.545c0 .824.121 1.55.362 2.18.242.625.595 1.115 1.059 1.47.464.351 1.032.526 1.704.526.701 0 1.286-.185 1.754-.554.474-.374.829-.876 1.066-1.506.241-.634.362-1.34.362-2.116 0-.767-.118-1.459-.355-2.074-.232-.62-.585-1.11-1.058-1.47-.469-.365-1.059-.547-1.769-.547-.682 0-1.255.173-1.719.518-.464.341-.814.819-1.051 1.435-.237.611-.355 1.323-.355 2.138Zm15.114 5.682c-1.051 0-1.958-.232-2.72-.696a4.675 4.675 0 0 1-1.755-1.961c-.407-.842-.611-1.823-.611-2.94s.204-2.102.611-2.955c.412-.857.985-1.524 1.719-2.002.739-.483 1.6-.725 2.585-.725.568 0 1.13.095 1.684.284a4.17 4.17 0 0 1 1.512.924c.455.421.817.98 1.087 1.676s.405 1.553.405 2.571v.71h-8.409v-1.449h6.704c0-.615-.123-1.165-.369-1.648a2.782 2.782 0 0 0-1.037-1.143c-.445-.279-.971-.419-1.577-.419-.667 0-1.245.166-1.733.497a3.28 3.28 0 0 0-1.115 1.278 3.763 3.763 0 0 0-.39 1.691v.966c0 .824.142 1.522.426 2.095a3.083 3.083 0 0 0 1.2 1.3c.511.293 1.106.44 1.783.44.44 0 .838-.062 1.193-.185.36-.128.67-.317.93-.568.261-.256.462-.573.604-.952l1.619.455a3.594 3.594 0 0 1-.859 1.449c-.403.412-.9.734-1.492.966-.591.227-1.257.341-1.995.341Zm8.743-14.773v14.545h-1.677v-14.545h1.677Zm4.746 0v14.545h-1.676v-14.545h1.676Zm7.644 14.773c-1.052 0-1.958-.232-2.721-.696a4.68 4.68 0 0 1-1.754-1.961c-.407-.842-.611-1.823-.611-2.94s.204-2.102.611-2.955c.412-.857.985-1.524 1.719-2.002.738-.483 1.6-.725 2.585-.725.568 0 1.129.095 1.683.284.554.19 1.059.497 1.513.924.455.421.817.98 1.087 1.676s.405 1.553.405 2.571v.71h-8.41v-1.449h6.705c0-.615-.123-1.165-.369-1.648a2.782 2.782 0 0 0-1.037-1.143c-.445-.279-.971-.419-1.577-.419-.668 0-1.245.166-1.733.497a3.271 3.271 0 0 0-1.115 1.278 3.763 3.763 0 0 0-.391 1.691v.966c0 .824.142 1.522.427 2.095a3.07 3.07 0 0 0 1.2 1.3c.511.293 1.105.44 1.783.44.44 0 .838-.062 1.193-.185.36-.128.67-.317.93-.568.261-.256.462-.573.604-.952l1.619.455a3.594 3.594 0 0 1-.859 1.449c-.403.412-.9.734-1.492.966-.592.227-1.257.341-1.995.341Zm8.742-6.79v6.562h-1.676v-10.909h1.62v1.705h.142a3.113 3.113 0 0 1 1.164-1.335c.521-.341 1.194-.512 2.017-.512.739 0 1.385.152 1.939.455.554.298.985.753 1.293 1.363.308.606.462 1.373.462 2.301v6.932h-1.676v-6.818c0-.857-.223-1.524-.668-2.003-.445-.483-1.056-.724-1.832-.724-.536 0-1.014.116-1.435.348-.417.232-.746.57-.987 1.015-.242.446-.363.985-.363 1.62Zm14.768-4.347v1.421h-5.654v-1.421h5.654Zm-4.006-2.613h1.676v10.397c0 .474.069.829.206 1.066.142.232.322.388.54.468.223.076.457.114.703.114.185 0 .336-.009.455-.028l.284-.057.341 1.505a3.311 3.311 0 0 1-.476.128 3.469 3.469 0 0 1-.774.071c-.474 0-.938-.101-1.392-.305a2.778 2.778 0 0 1-1.123-.93c-.293-.417-.44-.943-.44-1.577v-10.852Zm10.984 13.75c-1.051 0-1.958-.232-2.72-.696a4.675 4.675 0 0 1-1.755-1.961c-.407-.842-.61-1.823-.61-2.94s.203-2.102.61-2.955c.412-.857.985-1.524 1.719-2.002.739-.483 1.601-.725 2.585-.725.569 0 1.13.095 1.684.284.554.19 1.058.497 1.512.924.455.421.817.98 1.087 1.676s.405 1.553.405 2.571v.71h-8.409v-1.449h6.704c0-.615-.123-1.165-.369-1.648a2.775 2.775 0 0 0-1.037-1.143c-.445-.279-.971-.419-1.577-.419-.667 0-1.245.166-1.733.497a3.28 3.28 0 0 0-1.115 1.278 3.763 3.763 0 0 0-.39 1.691v.966c0 .824.142 1.522.426 2.095a3.083 3.083 0 0 0 1.2 1.3c.512.293 1.106.44 1.783.44.44 0 .838-.062 1.193-.185.36-.128.67-.317.93-.568.261-.256.462-.573.604-.952l1.619.455a3.594 3.594 0 0 1-.859 1.449 4.19 4.19 0 0 1-1.491.966c-.592.227-1.258.341-1.996.341Zm14.794-8.694-1.506.427a2.801 2.801 0 0 0-.419-.732 2.045 2.045 0 0 0-.739-.597c-.312-.156-.712-.234-1.2-.234-.667 0-1.224.154-1.669.462-.44.303-.66.689-.66 1.157 0 .417.151.746.454.988.303.241.777.442 1.421.603l1.619.398c.975.237 1.702.599 2.18 1.087.479.483.718 1.105.718 1.868a2.77 2.77 0 0 1-.54 1.676c-.355.492-.852.88-1.492 1.164-.639.285-1.382.427-2.23.427-1.112 0-2.033-.242-2.762-.725-.73-.483-1.191-1.188-1.385-2.116l1.591-.398c.151.587.438 1.027.859 1.321.426.294.982.44 1.669.44.781 0 1.401-.165 1.861-.497.464-.336.696-.738.696-1.207a1.27 1.27 0 0 0-.398-.952c-.265-.26-.672-.454-1.222-.582l-1.818-.426c-.999-.237-1.733-.604-2.201-1.101-.464-.502-.696-1.13-.696-1.882 0-.616.172-1.16.518-1.634.35-.473.826-.845 1.428-1.115.606-.27 1.292-.405 2.059-.405 1.08 0 1.927.237 2.543.71a3.839 3.839 0 0 1 1.321 1.875Zm10.165 12.557v-5.767h-.142c-.123.199-.298.45-.526.753-.227.298-.551.566-.973.803-.421.232-.982.348-1.683.348-.909 0-1.712-.23-2.408-.689-.696-.464-1.24-1.118-1.633-1.961-.393-.847-.59-1.849-.59-3.004 0-1.146.197-2.14.59-2.983.393-.843.94-1.494 1.641-1.953.7-.459 1.51-.689 2.429-.689.71 0 1.271.119 1.683.355.416.232.734.497.951.796.223.293.396.535.519.724h.199v-1.733h1.619v15h-1.676Zm-3.097-5.369c.673 0 1.241-.175 1.705-.526.464-.355.817-.845 1.058-1.47.242-.63.362-1.356.362-2.18 0-.815-.118-1.527-.355-2.138-.236-.616-.587-1.094-1.051-1.435-.464-.345-1.037-.518-1.719-.518-.71 0-1.302.182-1.775.547-.469.36-.822.85-1.058 1.47-.232.615-.348 1.307-.348 2.074 0 .776.118 1.482.355 2.116.241.63.596 1.132 1.065 1.506.474.369 1.061.554 1.761.554Zm14.716-3.182v-6.449h1.676v10.909h-1.676v-1.846h-.113a3.579 3.579 0 0 1-1.194 1.413c-.539.384-1.221.575-2.045.575-.682 0-1.288-.149-1.818-.447-.53-.303-.947-.758-1.25-1.364-.303-.611-.455-1.38-.455-2.308v-6.932h1.676v6.818c0 .796.223 1.43.668 1.904.45.473 1.023.71 1.719.71.416 0 .84-.106 1.271-.32.436-.213.8-.539 1.094-.98.298-.44.447-1.001.447-1.683Zm9.32 4.688c-1.051 0-1.958-.232-2.72-.696a4.68 4.68 0 0 1-1.754-1.961c-.407-.842-.611-1.823-.611-2.94s.204-2.102.611-2.955c.412-.857.985-1.524 1.719-2.002.738-.483 1.6-.725 2.585-.725.568 0 1.129.095 1.683.284.554.19 1.058.497 1.513.924.454.421.817.98 1.086 1.676.27.696.405 1.553.405 2.571v.71h-8.409v-1.449h6.705c0-.615-.123-1.165-.37-1.648a2.78 2.78 0 0 0-1.036-1.143c-.446-.279-.971-.419-1.577-.419-.668 0-1.245.166-1.733.497a3.271 3.271 0 0 0-1.115 1.278 3.75 3.75 0 0 0-.391 1.691v.966c0 .824.142 1.522.426 2.095a3.079 3.079 0 0 0 1.201 1.3c.511.293 1.105.44 1.782.44.441 0 .838-.062 1.193-.185.36-.128.67-.317.931-.568.26-.256.461-.573.604-.952l1.619.455a3.596 3.596 0 0 1-.86 1.449 4.18 4.18 0 0 1-1.491.966c-.592.227-1.257.341-1.996.341Zm21.612-11.137-4.034 10.909h-1.704l-4.034-10.909h1.818l3.011 8.693h.114l3.011-8.693h1.818Zm6.396 11.137c-1.051 0-1.958-.232-2.72-.696-.758-.469-1.342-1.123-1.754-1.961-.408-.842-.611-1.823-.611-2.94s.203-2.102.611-2.955c.412-.857.984-1.524 1.718-2.002.739-.483 1.601-.725 2.586-.725.568 0 1.129.095 1.683.284.554.19 1.058.497 1.513.924.454.421.816.98 1.086 1.676.27.696.405 1.553.405 2.571v.71h-8.409v-1.449h6.705c0-.615-.124-1.165-.37-1.648a2.775 2.775 0 0 0-1.037-1.143c-.445-.279-.97-.419-1.576-.419-.668 0-1.246.166-1.733.497a3.271 3.271 0 0 0-1.115 1.278 3.75 3.75 0 0 0-.391 1.691v.966c0 .824.142 1.522.426 2.095a3.083 3.083 0 0 0 1.2 1.3c.512.293 1.106.44 1.783.44.44 0 .838-.062 1.193-.185.36-.128.67-.317.931-.568.26-.256.461-.573.603-.952l1.62.455a3.596 3.596 0 0 1-.86 1.449 4.18 4.18 0 0 1-1.491.966c-.592.227-1.257.341-1.996.341Zm8.743-14.773v14.545h-1.676v-14.545h1.676Zm13.269 14.773c-1.051 0-1.958-.232-2.72-.696a4.675 4.675 0 0 1-1.755-1.961c-.407-.842-.61-1.823-.61-2.94s.203-2.102.61-2.955c.412-.857.985-1.524 1.719-2.002.739-.483 1.6-.725 2.585-.725.569 0 1.13.095 1.684.284.554.19 1.058.497 1.512.924.455.421.817.98 1.087 1.676s.405 1.553.405 2.571v.71h-8.409v-1.449h6.704c0-.615-.123-1.165-.369-1.648a2.782 2.782 0 0 0-1.037-1.143c-.445-.279-.971-.419-1.577-.419-.667 0-1.245.166-1.733.497a3.28 3.28 0 0 0-1.115 1.278 3.763 3.763 0 0 0-.39 1.691v.966c0 .824.142 1.522.426 2.095a3.083 3.083 0 0 0 1.2 1.3c.511.293 1.106.44 1.783.44.44 0 .838-.062 1.193-.185.36-.128.67-.317.93-.568.261-.256.462-.573.604-.952l1.619.455a3.594 3.594 0 0 1-.859 1.449 4.19 4.19 0 0 1-1.491.966c-.592.227-1.258.341-1.996.341Zm13.942-4.688v-6.449h1.676v10.909h-1.676v-1.846h-.114a3.585 3.585 0 0 1-1.193 1.413c-.54.384-1.222.575-2.046.575-.682 0-1.288-.149-1.818-.447-.53-.303-.947-.758-1.25-1.364-.303-.611-.454-1.38-.454-2.308v-6.932h1.676v6.818c0 .796.222 1.43.667 1.904.45.473 1.023.71 1.719.71.417 0 .84-.106 1.271-.32a2.76 2.76 0 0 0 1.094-.98c.298-.44.448-1.001.448-1.683Zm4.746 4.46v-10.909h1.676v10.909h-1.676Zm.852-12.727c-.327 0-.609-.111-.845-.334a1.071 1.071 0 0 1-.348-.802c0-.313.116-.58.348-.803.236-.222.518-.334.845-.334.327 0 .606.112.838.334.237.223.355.49.355.803 0 .312-.118.58-.355.802a1.165 1.165 0 0 1-.838.334Zm11.623 4.261-1.51.427a2.548 2.548 0 0 0-.42-.732 2.038 2.038 0 0 0-.735-.597c-.313-.156-.713-.234-1.201-.234-.667 0-1.224.154-1.669.462-.44.303-.66.689-.66 1.157 0 .417.151.746.454.988.303.241.777.442 1.421.603l1.619.398c.971.237 1.701.599 2.181 1.087.48.483.72 1.105.72 1.868a2.77 2.77 0 0 1-.54 1.676c-.36.492-.86.88-1.49 1.164-.644.285-1.387.427-2.234.427-1.113 0-2.034-.242-2.763-.725-.729-.483-1.191-1.188-1.385-2.116l1.591-.398c.151.587.438 1.027.859 1.321.426.294.983.44 1.669.44.781 0 1.402-.165 1.863-.497.46-.336.69-.738.69-1.207 0-.379-.13-.696-.39-.952-.27-.26-.676-.454-1.225-.582l-1.819-.426c-.999-.237-1.733-.604-2.201-1.101-.464-.502-.696-1.13-.696-1.882 0-.616.173-1.16.518-1.634.351-.473.826-.845 1.428-1.115.606-.27 1.292-.405 2.059-.405 1.08 0 1.926.237 2.546.71a3.83 3.83 0 0 1 1.32 1.875Zm2.72 8.466v-10.909h1.62v1.705h.14c.23-.583.6-1.035 1.1-1.357.51-.326 1.12-.49 1.83-.49.72 0 1.32.164 1.79.49.49.322.86.774 1.13 1.357h.12c.28-.564.7-1.011 1.25-1.343.56-.336 1.23-.504 2.01-.504.98 0 1.78.306 2.4.916.62.606.93 1.551.93 2.834v7.301h-1.68v-7.301c0-.805-.22-1.38-.66-1.726a2.445 2.445 0 0 0-1.55-.518c-.77 0-1.37.232-1.79.696-.42.459-.63 1.042-.63 1.747v7.102h-1.7v-7.471c0-.621-.2-1.12-.61-1.499-.4-.383-.92-.575-1.55-.575-.44 0-.85.116-1.22.348-.38.232-.68.554-.91.966-.23.407-.34.878-.34 1.413v6.818h-1.68Zm21.81.228c-.98 0-1.84-.235-2.59-.704-.74-.468-1.31-1.124-1.73-1.967-.41-.843-.62-1.828-.62-2.954 0-1.137.21-2.129.62-2.976.42-.848.99-1.506 1.73-1.975.75-.468 1.61-.703 2.59-.703.99 0 1.85.235 2.59.703.74.469 1.32 1.127 1.73 1.975.42.847.63 1.839.63 2.976 0 1.126-.21 2.111-.63 2.954-.41.843-.99 1.499-1.73 1.967-.74.469-1.6.704-2.59.704Zm0-1.506c.75 0 1.37-.192 1.85-.575.48-.384.84-.888 1.07-1.513.24-.625.35-1.302.35-2.031 0-.73-.11-1.409-.35-2.039a3.441 3.441 0 0 0-1.07-1.527c-.48-.388-1.1-.582-1.85-.582-.74 0-1.36.194-1.84.582-.48.389-.84.897-1.07 1.527-.24.63-.35 1.309-.35 2.039 0 .729.11 1.406.35 2.031.23.625.59 1.129 1.07 1.513.48.383 1.1.575 1.84.575Zm11.63 1.506c-.91 0-1.72-.23-2.41-.689-.7-.464-1.24-1.118-1.64-1.961-.39-.847-.59-1.849-.59-3.004 0-1.146.2-2.14.59-2.983.4-.843.94-1.494 1.65-1.953.7-.459 1.51-.689 2.42-.689.71 0 1.28.119 1.69.355.41.232.73.497.95.796.22.293.39.535.52.724h.14v-5.369h1.68v14.545h-1.62v-1.676h-.2c-.13.199-.3.45-.53.753-.23.298-.55.566-.97.803-.42.232-.98.348-1.68.348Zm.22-1.506c.68 0 1.24-.175 1.71-.526.46-.355.81-.845 1.06-1.47.24-.63.36-1.356.36-2.18 0-.815-.12-1.527-.36-2.138-.23-.616-.58-1.094-1.05-1.435-.46-.345-1.04-.518-1.72-.518-.71 0-1.3.182-1.77.547-.47.36-.82.85-1.06 1.47-.23.615-.35 1.307-.35 2.074 0 .776.12 1.482.36 2.116.24.63.59 1.132 1.06 1.506.48.369 1.06.554 1.76.554Zm9.3 1.392c-.35 0-.65-.126-.9-.376a1.238 1.238 0 0 1-.38-.902c0-.351.13-.652.38-.902.25-.251.55-.377.9-.377s.65.126.9.377c.25.25.38.551.38.902 0 .232-.06.445-.18.639-.11.194-.27.35-.46.468-.19.114-.4.171-.64.171Z"/>
  <defs>
    <linearGradient id="a" x1="800" x2="800" y1="93.427" y2="175.524" gradientUnits="userSpaceOnUse">
      <stop stop-color="#FD9B02"/>
      <stop offset="1" stop-color="#FF7302"/>
    </linearGradient>
    <linearGradient id="b" x1="800" x2="800" y1="99.158" y2="176.577" gradientUnits="userSpaceOnUse">
      <stop stop-color="#EDF1F2"/>
      <stop offset=".336" stop-color="#E9EDEE"/>
      <stop offset=".636" stop-color="#DEE2E3"/>
      <stop offset=".921" stop-color="#CCD1D2"/>
      <stop offset="1" stop-color="#C6CBCC"/>
    </linearGradient>
    <linearGradient id="c" x1="777.359" x2="817.988" y1="110.555" y2="151.183" gradientUnits="userSpaceOnUse">
      <stop stop-color="#4793EB"/>
      <stop offset="1" stop-color="#2367EC"/>
    </linearGradient>
    <linearGradient id="d" x1="705.087" x2="832.634" y1="68.02" y2="212.767" gradientUnits="userSpaceOnUse">
      <stop stop-color="#FED200"/>
      <stop offset="1" stop-color="#F59815"/>
    </linearGradient>
    <linearGradient id="e" x1="773.322" x2="835.663" y1="169.986" y2="274.961" gradientUnits="userSpaceOnUse">
      <stop stop-color="#FED200"/>
      <stop offset="1" stop-color="#F59815"/>
    </linearGradient>
  </defs>
</svg>
